<?xml version="1.0" encoding="UTF-8" standalone="no"?>
<!-- Generator: Adobe Illustrator 27.5.0, SVG Export Plug-In . SVG Version: 6.00 Build 0)  -->

<svg
   version="1.1"
   id="Layer_1"
   x="0px"
   y="0px"
   viewBox="0 0 2122 2122"
   style="enable-background:new 0 0 2122 2122;"
   xml:space="preserve"
   sodipodi:docname="title-line.svg"
   inkscape:version="1.4.3 (0d15f75, 2025-12-25)"
   xmlns:inkscape="http://www.inkscape.org/namespaces/inkscape"
   xmlns:sodipodi="http://sodipodi.sourceforge.net/DTD/sodipodi-0.dtd"
   xmlns="http://www.w3.org/2000/svg"
   xmlns:svg="http://www.w3.org/2000/svg"><defs
   id="defs464" /><sodipodi:namedview
   id="namedview464"
   pagecolor="#ffffff"
   bordercolor="#000000"
   borderopacity="0.25"
   inkscape:showpageshadow="2"
   inkscape:pageopacity="0.0"
   inkscape:pagecheckerboard="0"
   inkscape:deskcolor="#d1d1d1"
   inkscape:zoom="0.38312912"
   inkscape:cx="1059.695"
   inkscape:cy="225.77245"
   inkscape:window-width="1920"
   inkscape:window-height="1094"
   inkscape:window-x="-11"
   inkscape:window-y="-11"
   inkscape:window-maximized="1"
   inkscape:current-layer="g464" />
<g
   id="g464"
   transform="translate(20.880689)">
	
	
	
	
	
	<g
   id="g427"
   transform="translate(-10.440344,-1195.4195)">
		<path
   style="fill:#353538"
   d="m 492.96,1606.458 c -5.505,-1.427 -10.999,0.549 -16.49,0.051 -4.179,-0.378 -8.172,0.279 -12.286,0.88 -20.323,2.968 -21.501,-2.649 -42.599,0.241 -12.452,1.705 -8.521,3.765 -15.623,4.254 -4.06,0.278 -8.636,-1.17 -11.969,1.541 -2.942,2.392 -7.209,1.045 -9.895,3.608 -0.445,0.424 -1.725,0.148 -2.952,0.214 -7.337,-10.092 2.449,-8.611 -40.21,-8.613 -30.786,0 -27.692,2.264 -29.108,-10.755 1.436,-2.698 3.619,-5.213 0.286,-7.859 -0.846,-0.177 -1.757,-0.606 -2.577,-0.496 -12.819,1.718 -5.869,-0.387 -13.517,-0.013 -6.437,0.314 -12.866,0.091 -19.3,0.064 -9.427,-0.04 -4.964,1.346 -34.848,2.401 8.339,3.434 21.303,-2.669 23.909,8.416 -0.855,0.737 -1.757,2.219 -2.784,2.293 -43.258,3.114 -35.637,-2.017 -34.65,-9.895 -0.521,-1.665 -1.012,-3.238 -1.42,-4.545 2.51,-9.1 39.615,2.708 103.556,-3.223 12.234,-7.52 21.492,-3.622 49,1.612 10.982,-3.56 17.689,-4.163 17.152,-12.088 -1.666,-0.351 -3.407,-1.011 -5.154,-1.025 -3.664,-0.027 -7.208,-1.025 -10.965,-0.53 -6.883,0.907 -13.776,0.818 -20.438,-1.395 l 0.267,0.285 c 2.719,-4.448 7.576,-3.53 19.476,-3.53 -1.254,-2.371 -3.766,-1.181 -5.497,-1.877 -1.66,-0.667 -3.401,-1.551 -5.132,-1.597 -1.726,-0.045 -3.762,1.594 -5.178,1.178 -6.897,-2.03 -13.655,-0.398 -20.491,-0.082 -15.468,0.714 -53.038,-0.808 -89.244,0.686 -5.03,-0.967 -6.361,-4.276 -9.88,-4.783 -1.991,-0.288 -1.903,-0.776 -3.634,-4.182 -5.569,0 -11.118,-0.326 -16.59,0.113 -11.677,0.939 -9.964,-1.014 -15.011,-0.406 -12.806,1.544 -25.687,0.942 -38.539,1.182 -2.95,0.055 -5.336,-0.993 -7.874,-2.597 1.193,-1.215 2.274,-2.316 3.356,-3.417 -3.01,-0.85 -6.455,-1.111 -7.623,-4.497 1.562,-3.701 8.75,-3.667 13.61,-3.682 49.344,-0.158 37.681,1.069 49.223,-2.904 17.401,-5.991 225.163,0.99 250.026,-3.401 -25.745,-2.339 -100.569,1.069 -91.475,-3.031 2.957,-1.335 5.909,-1.639 9.296,-0.917 3.243,0.691 6.083,-0.521 5.778,-1.657 -2.378,-8.859 -27.053,-8.157 -36.592,-8.18 -0.762,-10e-4 -1.526,0.779 -2.475,1.297 2.454,4.159 -0.406,3.067 17.456,4.849 -20.715,3.205 -160.515,1.736 -162.211,0.049 11.523,-5.879 29.671,3.927 38.139,-4.992 -7.372,-1.942 -18.294,-0.139 -20.295,-0.55 -9.53,-1.962 -19.233,-1.011 -28.848,-1.471 -11.665,-0.558 -16.115,1.934 -21.933,-0.249 -1.573,-0.59 -3.726,-0.485 -5.454,-0.107 -5.26,1.15 -9.914,-0.572 -14.734,-1.608 0.12,-0.694 0.068,-1.167 0.234,-1.239 17.061,-7.417 21.478,-1 46.107,-5.06 5.406,-0.892 11.019,-0.741 16.511,-1.285 1.147,-0.114 2.171,-1.227 3.252,-1.88 1.285,-0.108 1.539,-0.343 0.76,-0.706 -0.167,0.318 -0.333,0.636 -0.499,0.953 -1.991,-1.134 -4.103,-1.838 -6.48,-1.185 -4.044,1.11 -8.116,0.476 -12.18,0.198 -0.295,-0.021 -0.554,-0.452 -0.864,-0.722 1.46,-4.551 7.044,-3.204 9.393,-5.762 36.647,-1.257 23.444,-3.581 44.174,-3.45 74.384,0.472 70.63,-0.961 74.059,-4.204 -2,1.908 5.429,-7.606 32.567,-3.732 5.183,0.74 26.271,2.354 31.43,0.927 16.68,-4.612 28.509,0.11 57.349,-2.381 1.51,-0.13 2.342,-1.043 2.966,-2.164 4.203,0.176 7.939,-0.732 10.968,-3.9 -13.575,0 -12.425,-0.777 -10.64,4.139 -5.678,-1.185 -5.667,-1.203 -10.204,-4.67 -26.097,-1.297 -46.56,0.113 -65.589,-1.633 -1.29,-0.119 -3.264,-1.866 -2.785,-2.37 1.511,-1.583 2.509,-1.66 3.237,-1.764 10.402,-1.482 6.2,-0.133 15.248,-4.678 29.722,3.761 19.412,1.556 33.16,2.482 25.372,1.709 30.565,4.115 49.534,1.187 0.93,-0.144 1.635,-1.45 2.409,-2.184 -1.817,-2.037 -4.074,-2.562 -6.813,-3.469 -18.64,2.676 -219.738,-4.797 -248.694,-0.611 -1.636,0.236 -3.404,-0.26 -6.239,-0.521 14.895,-9.181 54.712,-6.529 79.684,-5.348 1.795,-0.554 182.031,-1.501 182.101,-1.494 6.547,0.716 12.843,0.183 19.305,-1.243 2.596,0.46 5.271,1.188 7.987,1.341 0.069,0 61.448,-0.945 71.624,1.129 1.606,0.327 9.373,-1.318 13.693,-0.578 9.723,1.667 10.57,-1.076 19.145,-0.532 27.096,1.717 41.339,-1.215 52.281,0.69 2.66,0.463 5.601,0.423 8.261,-0.057 8.244,-1.487 16.563,0.143 24.813,-0.764 2.23,-0.245 4.604,0.185 6.858,0.565 11.505,1.945 126.042,1.107 412.549,1.107 7.252,-3.934 6.329,-4.545 12.199,-0.315 2.814,0.181 6.018,0.547 9.224,0.568 180.166,1.19 156.522,1.004 142.983,-2.807 -14.832,0.822 -17.888,1.139 -20.401,0.424 -10.926,-3.111 -33.593,-0.057 -55.017,-3.802 -100.233,-17.525 -731.972,-12.041 -742.88,-13.542 2.459,-7.032 9.172,-6.126 310.554,-3.913 247.104,1.805 262.827,1.926 299.301,6.03 4.522,0.509 34.269,0.818 42.765,2.279 2.25,0.387 9.08,-1.055 12.341,-0.537 14.23,2.262 142.662,5.042 187.341,12.232 7.003,1.127 23.271,5.736 42.231,4.941 20.544,-0.861 420.257,1.53 472.071,11.709 3.677,0.722 4.815,1.333 74.588,0.052 5.211,-0.096 9.985,1.049 14.25,3.847 -3.461,3.253 -26.424,-0.082 -37.732,2.597 -7.505,1.777 -14.546,-1.595 -21.893,-1.16 -8.692,0.515 -17.409,-0.336 -26.079,1.85 -7.598,1.915 -15.568,0.215 -23.372,-0.027 -3.464,-1.521 -60.994,-1.856 -68.691,-0.245 -14.814,3.101 -252.076,-3.406 -275.598,2.529 -12.732,-2.622 -26.068,-1.903 -39.395,-0.755 -19.767,1.702 -11.918,-0.636 -23.323,-0.701 -51.469,-0.29 -58.99,-0.471 -69.051,1.419 -6.564,1.235 -6.454,-0.581 -15.259,1.673 13.032,6.942 15.332,1.935 28.513,5.421 5.64,1.492 20.617,0.734 33.051,0.318 12.418,-0.416 11.042,-3.376 23.186,-1.157 6.877,1.258 8.053,1.032 34.061,2.384 5.661,3.397 6.088,4.287 11.524,4.046 6.183,-0.274 132.762,1.202 136.646,0.724 9.294,-1.145 4.162,2.194 28.902,0.245 5.575,-0.44 50.84,2.453 57.782,0.382 0.087,-0.759 0.172,-1.516 0.262,-2.305 -6.276,-3.794 -13.693,-0.183 -20.428,-2.545 3.127,-3.072 18.207,1.281 16.669,-2.459 -0.671,-1.629 -1.698,-0.969 -5.835,-2.201 -3.054,-4.717 73.489,0.678 79.537,1.484 7.648,5.007 4.609,3.986 14.099,4.388 -0.533,-0.766 -1.706,1.836 -3.196,1.994 -16.471,1.742 -14.288,-0.01 -15.467,1.779 1.807,0.645 -4.752,0.455 46.945,0.455 7.649,-4.44 5.144,-4.24 25.637,-7.978 11.65,-2.127 13.583,1.327 34.407,0.944 1.778,-0.032 3.721,-0.083 5.274,1.226 -0.565,0.389 -1.075,1.033 -1.675,1.108 -19.454,2.454 -28.363,-1.886 -34.253,1.17 0.436,2.582 1.17,3.742 2.542,3.412 5.347,-1.283 10.823,0.327 16.271,-1.005 4.163,-1.019 16.844,-2.435 16.646,3.572 -6.101,2.029 -12.793,0.029 -18.99,1.782 -4.272,3.695 -4.272,3.695 -10.796,5.631 41.523,2.331 32.484,2.223 53.478,1.118 15.986,-0.843 17.843,0.561 28.971,0.505 24.489,-0.125 21.594,-1.156 38.318,2.222 0.934,0.188 1.549,1.637 2.323,2.519 -1.715,1.136 -3.127,2.071 -4.584,3.036 6.398,4.114 5.465,2.419 0.245,4.378 -8.849,3.32 -8.125,6.188 -33.577,2.979 -2.212,-0.279 -4.961,1.316 -7.361,2.026 -0.885,1.325 1.224,2.501 -1.034,3.975 -3.302,0 -7.403,0 -11.802,0 -0.089,-1.562 -0.167,-2.932 -0.262,-4.59 -5.363,-0.656 -11.067,0.528 -16.25,-1.7 -37.575,0.958 -16.579,2.588 -44.073,10.46 -7.08,8.764 -3.556,5.521 -10.241,7.073 -9.535,2.215 -0.362,-1.019 -18.718,-1.39 -46.05,-0.927 -7.471,0.339 2.848,-5.794 -11.868,-4.375 -24.142,-3.564 -35.78,-4.187 -5.902,-1.176 -10.538,-5.833 -17.541,-3.401 5.046,2.848 3.627,1.529 5.163,5.29 -2.286,0.718 5.541,0.523 -58.363,0.704 -4.91,0.013 -11.663,-0.941 -17.9,4.398 -15.43,1.474 -13.75,1.04 -13.777,2.134 15.219,2.297 9.574,1.183 22.064,4.697 -1.951,6.79 -3.389,6.175 38.059,3.905 30.523,-1.67 35.461,-3.926 49.284,0.611 1.408,1.929 2.866,3.926 4.156,5.693 5.078,1.246 9.642,0.058 14.014,0.033 3.8,-0.801 6.323,-3.51 10.179,-4.046 3.066,-0.427 5.933,-1.998 8.674,-2.984 14.213,6.891 19.775,1.078 33.795,3.114 3.29,0.477 2.931,-2.375 18.959,-2.096 0.798,0.567 1.888,0.941 2.112,1.565 1.826,5.073 4.051,6.142 9.385,5.037 18.13,-3.756 47.675,-4.463 52.445,-3.353 -3.693,2.881 0.464,1.551 -14.603,5.101 6.321,1.819 7.596,0.627 27.707,2.566 2.364,0.228 3.311,3.022 1.635,4.786 -3.009,3.17 -4.506,0.658 0.11,5.236 -1.123,3.39 -5.029,4.552 -6.48,6.894 -8.588,2.827 -145.527,0.842 -145.596,0.82 -8.182,-2.567 -6.275,0.267 -46.721,1.15 -63.776,1.387 -59.947,-2.231 -67.077,3.262 1.354,0.994 2.656,1.952 4.025,2.957 -11.513,0 -8.317,0.643 -14.537,-2.489 -1.589,0.729 -3.177,1.457 -4.59,2.104 -5.009,0.491 -8.649,-3.335 -13.902,-2.817 -3.331,3.662 -2.255,3.553 -10.302,3.064 -1.372,-4.041 0.533,-3.21 -9.221,-3.21 -0.081,0.933 -0.148,1.704 -0.214,2.474 -1.962,2.023 -11.58,2.266 -23.895,0.602 0.114,-0.765 0.228,-1.53 0.399,-2.678 -3.361,-1.349 -6.833,-1.39 -10.416,-0.467 -1.287,0.332 -2.047,2.522 10e-4,3.971 0.723,0.511 1.492,0.969 2.242,1.449 -0.607,2.771 -3.927,3.248 -5.774,5.541 2.089,2.069 -0.212,3.175 14.728,2.004 19.736,-1.546 -1.345,0.763 62.688,0.763 10.213,5.411 2.933,6.346 1.03,9.703 1.1,1.401 2.344,2.982 3.761,4.786 -1.105,1.454 -0.861,3.71 -8.803,4.294 -2.728,0.2 -5.551,0.119 -8.253,-0.278 -10.542,-1.55 -21.084,-0.471 -31.63,-0.29 -5.166,0.09 -8.744,2.909 -11.96,1.909 -5.688,-1.766 -10.817,0.121 -15.872,1.147 -3.741,3.832 -3.661,3.87 -3.306,7.927 2.206,0.947 4.55,1.953 6.871,2.951 -1.164,2.683 0.215,1.785 -4.314,3.917 -2.073,3.806 7.228,0.02 21.594,4.657 -9.033,3.882 -65.521,-3.226 -79.117,-0.971 -4.371,0.725 -104.159,-2.456 -104.264,-2.474 -25.608,-4.531 -296.831,-4.406 -328.528,-8.949 -5.415,-0.776 -10.691,-0.446 -18.119,0.295 13.458,2.524 50.671,9.76 64.435,10.249 -6.71,0.407 -13.387,1.475 -20.01,-0.835 -0.814,-0.284 -60.093,-2.062 -79.485,-7.355 -15.295,-4.176 -30.456,-3.341 -39.717,-3.686 -13.616,-0.504 -9.828,-3.295 -30.062,-2.398 -11.336,0.505 1.91,-0.815 -25.62,-2.475 -0.322,-0.505 -0.678,-0.916 -0.611,-0.981 2.857,-2.803 7.324,0.571 10.496,-2.362 -8.168,-1.226 -16.739,0.328 -23.865,-4.302 -2.433,0.694 -4.585,1.308 -6.567,1.874 -0.396,3.863 3.505,3.37 5.262,4.722 -0.197,0.482 -0.261,0.962 -0.427,0.992 -6.911,1.253 -16.782,0.617 -17.777,-0.258 -5.77,-5.067 -18.243,-3.689 -17.423,-5.744 1.822,-4.576 6.535,-1.734 16.081,-4.777 -1.953,-0.271 -3.901,-0.731 -5.862,-0.78 -31.734,-0.793 -29.184,-1.391 -40.316,3.877 -2.906,-0.589 -5.301,-2.186 -8.801,-1.782 -4.992,0.576 -10.05,0.452 -14.98,1.833 -2.591,0.725 -5.527,1.223 -8.168,0.902 -6.507,-0.787 -12.861,0.216 -19.263,0.64 -17.603,1.167 -8.68,-0.154 -27.512,-0.131 -25.313,0.031 -19.099,-1.138 -24.858,3.341 -1.953,1.521 -3.32,-1.55 -4.282,-3.179 -4.984,-0.248 -9.971,-0.88 -14.898,1.086 -3.989,1.592 -8.063,1.165 -11.986,-0.69 -7.492,-3.543 -7.056,0.474 -41.048,-3.194 -6.994,-0.754 -7.03,-0.31 -31.699,-1.496 -5.487,-0.265 -10.968,-1.475 -16.461,0.211 -1.231,0.378 -2.814,0.381 -4.071,0.054 -5.364,-1.393 -26.175,-1.83 -34.255,-0.703 -5.346,0.745 -4.005,0.634 -26.068,-0.874 -1.739,-0.119 -3.623,0.127 -5.21,-1.445 0.908,-1.245 1.858,-2.548 2.815,-3.862 -0.108,-0.393 -0.114,-1.074 -0.34,-1.139 -4.757,-1.361 -12.805,-1.56 -22.071,-0.589 -0.061,1.092 -0.124,2.225 -0.215,3.854 -0.728,1.847 -4.862,1.686 -4.878,4.895 17.48,1.793 18.28,1.312 17.244,3.596 -0.858,1.888 -14.952,0.572 -21.565,1.49 -5.456,0.756 -11.038,0.39 -16.119,-1.881 -3.995,-8.287 -6.268,-3.029 -5.969,-8.11 0.251,-4.294 -2.588,-3.483 -7.72,-3.412 -4.671,6.848 -1.206,5.462 -23.641,5.462 -1.254,-1.395 -2.375,-2.643 -3.496,-3.892 0.783,-0.842 0.679,-0.917 0.299,0.263 z m 904.899,-106.519 c -0.157,-0.84 0.175,-2.336 -1.626,-0.969 4.881,1.84 2.864,2.601 4.894,1.616 -0.833,-1.249 -2.113,-0.695 -3.268,-0.647 z m -298.121,104.897 c -1.402,-0.77 -16.993,-1.48 -28.582,1.471 -1.457,0.371 -2.073,1.414 -2.176,2.719 -11.65,-0.754 -13.867,-0.655 -23.704,1.238 16.58,2.843 19.073,0.011 23.465,-1.495 3.553,0.538 7.018,1.524 10.734,0.474 11.45,-3.237 11.825,3.312 35.032,1.739 0.45,-0.03 0.846,-0.674 1.589,-1.307 -13.683,-2.596 -6.324,0.681 -16.358,-4.839 z m -457.479,-3.403 c -45.356,1.444 -9.533,0.015 -41.848,6.297 28.062,1.719 19.163,0.951 72.419,-0.049 3.132,1.134 5.663,2.049 8.258,2.989 7.671,-3.809 3.965,-1.928 8.989,-2.408 21.686,-2.077 2.096,-1.746 31.449,-1.424 0.259,0 0.756,0.491 0.716,0.68 -0.599,2.784 -5.733,-0.588 -8.375,2.315 1.971,2.243 54.539,0.935 59.831,0.966 8.312,0.049 16.44,-0.769 24.761,-3.539 -0.96,-1.039 -1.634,-2.495 -2.495,-2.589 -29.018,-3.188 -33.165,3.474 -53.511,0.522 -0.288,-0.041 -0.762,-0.714 -0.693,-0.801 0.445,-0.555 1.036,-1.475 1.545,-1.458 15.296,0.528 9.296,2.106 19.931,-3.029 12.253,-2.523 22.236,0.457 31.991,-0.376 1.679,-3.341 2.448,-2.806 -62.662,-2.669 -2.654,0.01 -3.552,0.656 -7.379,2.373 -24.707,0.874 -20.057,1.322 -23.498,1.218 -4.042,-0.121 -8.077,-1.488 -11.931,1.051 -1.539,1.014 -7.708,-1.375 -9.511,-1.962 -13.266,4.728 -29.267,0.079 -35.193,1.887 -0.934,-1.222 -1.864,-1.044 -2.794,0.01 z m 775.111,-121.616 c 43.827,3.212 -23.615,3.03 164.081,2.311 114.613,-0.438 118.049,0.275 129.862,-1.386 4.497,-0.633 9.091,0.492 13.704,0.469 5.105,-0.026 9.802,-2.548 14.998,-1.442 0.998,0.212 2.23,-0.457 6.237,-1.391 -111.473,-1.613 -109.317,-2.396 -124.483,-2.117 -11.495,0.211 -22.975,1.458 -34.454,-0.352 -1.76,-0.278 -3.687,-0.026 -5.479,0.263 -6.717,1.083 -9.223,-1.105 -13.575,0 -8.737,2.21 -18.585,-1.523 -38.473,-0.474 -8.328,0.439 -23.418,-0.152 -31.561,-1.698 -0.081,-0.016 -67.484,-0.755 -67.554,-0.756 -2.842,-0.03 -6.587,1.621 -13.676,0.152 -3.383,-0.702 -6.933,-0.662 -10.566,0.233 4.22,5.086 10.288,1.955 11.225,6.506 -99.56,-5.847 9.213,-6.877 -140.193,-7.441 -32.494,-0.122 -12.505,1.896 -53.759,0.263 -11.005,-0.436 -22.039,-0.647 -33.088,0.223 0.226,5.941 10.805,0.22 68.536,6.833 3.407,0.39 3.854,1.623 6.102,4.497 47.109,1.748 80.895,-2.485 107.549,-1.473 4.302,0.163 31.434,0.393 42.658,-1.578 0.726,-0.13 1.277,-1.071 1.909,-1.638 z m -886.673,-3.645 c 10.737,1.878 487.795,1.017 507.288,2.157 94.207,5.503 64.656,4.673 115.899,4.039 1.06,-0.013 2.109,-0.693 5.514,-1.887 -14.579,-0.953 -18.131,1.313 -29.45,-2.786 -2.791,-1.011 -6.197,0.653 -9.178,-2.126 112.703,-3.08 -52.271,-4.229 -68.743,-2.099 -29.833,3.86 -429.882,-0.779 -456.566,1.498 -5.412,0.463 -40.245,-0.225 -42.697,0.041 -6.468,0.704 -12.833,0.824 -19.273,0.165 -0.757,-0.077 -1.604,0.552 -2.794,0.998 z m 1099.795,66.883 c -40.908,-1.304 -62.449,1.088 -69.506,-2.854 -2.4,-1.34 -7.47,-0.215 -10.861,-0.084 -10.014,0.388 -7.57,-1.366 -9.882,3.659 -9.1,1.095 -10.764,-0.526 -11.84,2.181 21.1,0.566 83.243,0.393 102.357,-0.611 0.756,-0.039 0.748,-1.109 -0.268,-2.291 z m -169.905,70.017 c 1.706,0.324 46.434,1.862 60.196,-0.624 1.072,-0.194 1.9,-1.467 3.219,-2.563 -30.457,-1.674 7.759,-4.599 -70.769,-3.458 2.862,2.585 5.13,4.635 7.354,6.645 z m -607.916,-12.714 c 12.609,0 25.071,0 38.148,0 -6.903,-3.419 -6.537,-5.315 -33.733,-2.992 -1.669,0.142 -3.658,0.632 -4.415,2.992 z m 653.653,0.159 c -4.331,-2.453 -13.248,0.945 -20.098,-1.207 -65.92,-0.191 -11.265,1.427 2.323,3.908 5.241,0.957 10.909,0.647 16.216,-0.859 0.659,-0.187 1.031,-1.188 1.559,-1.842 z m -164.811,9.259 c -0.11,3.233 -2.56,3.736 25.161,4.872 0.595,-0.83 1.605,-1.673 1.42,-2.092 -1.937,-4.383 -4.61,-3.707 -26.581,-2.78 z m -327.294,-7.798 c 7.385,1.316 1.858,1.154 25.32,1.426 3.951,0.046 9.944,-0.854 12.419,-3.642 -6.225,-0.969 -11.766,1.574 -17.575,1.684 -5.874,0.11 -11.748,0.305 -20.164,0.532 z m -564.89,-29.256 c -6.323,-0.504 -11.555,1.985 -16.939,0.047 -1.17,-0.421 -1.972,1.032 -1.198,2.505 13.894,3.363 8.756,1.349 14.236,1.663 8.243,0.47 8.062,3.003 3.901,-4.215 z m -34.507,-6.25 c -3.03,0.077 -6.331,-0.392 -8.942,1.736 0.809,0.418 1.555,1.103 2.372,1.178 29.597,2.744 58.081,-4.227 6.57,-2.914 z m 391.492,-1.667 c 0.417,1.54 -1.774,1.087 16.709,1.13 4.928,0.012 9.86,0.133 14.731,-1.13 -3.1,0 -28.964,0 -31.44,0 z m 83.6,-3.412 c 18.079,1.691 13.194,3.324 19.717,0.791 1.225,-0.477 2.169,-1.118 1.173,-2.464 -14.684,-1.207 -14.684,-1.207 -20.89,1.673 z m 211.612,35.866 c -24.039,-0.757 -20.692,-0.587 -25.21,0.656 7.629,0.431 17.297,1.018 25.21,-0.656 z M 285.586,1526.7 c 0.752,0.44 1.604,0.955 2.453,1.011 3.938,0.259 14.033,-0.975 18.882,-2.199 -5.018,-0.263 -25.82,-1.426 -21.335,1.188 z m 1146.438,15.666 c 5.752,2.467 17.469,1.861 22.367,0.224 -7.947,-0.85 -14.099,-1.196 -22.367,-0.224 z m 276,-38.55 c 3.728,1.018 11.048,0.652 13.421,0.031 0.273,-0.072 0.41,-0.558 0.613,-0.858 -0.58,-0.463 -1.171,-1.34 -1.74,-1.328 -8.471,0.169 -8.952,0.283 -12.294,2.155 z m 199.691,68.885 c 10.341,1.338 10.687,1.333 15.004,-0.25 -5.052,-0.93 -10.05,-0.653 -15.004,0.25 z m -254.812,-27.393 c -0.43,-0.561 -0.799,-1.558 -1.302,-1.615 -4.061,-0.463 -7.805,0.723 -12.646,2.273 15.347,-10e-4 12.848,0.222 13.948,-0.658 z m -84.75,81.998 c 0.374,-0.82 1.295,-0.624 -5.126,-0.624 -10.907,0 -9.47,-0.21 -9.481,0.624 4.869,0 9.738,0 14.607,0 z m -362.452,-146.413 c -4.464,-0.767 -8.773,-0.728 -15.024,0.415 5.421,0.704 8.963,0.365 12.469,0.403 0.803,0.01 1.612,-0.5 2.555,-0.818 z m -108.772,139.52 c 4.38,0.625 8.631,0.61 14.272,-0.452 -3.966,-0.793 -6.591,-0.762 -9.2,-0.539 -1.677,0.144 -3.561,-0.457 -5.072,0.991 z m 93.194,-3.179 c -3.521,0.539 -7.092,-1.749 -11.261,0.865 4.215,-0.073 7.748,0.125 11.261,-0.865 z m 316.612,-71.725 c 7.334,1.176 7.336,1.216 10.03,-0.311 -3.367,-1.177 -6.66,-0.68 -10.03,0.311 z m -147.647,-44.592 c -6.385,-1.025 -10.585,-2.161 -15.624,-0.135 5.017,2.493 9.23,1.025 15.624,0.135 z m 324.194,-4.707 c 2.739,1.454 11.661,2.763 8.915,-0.437 -3.001,-0.622 -5.981,-0.797 -8.915,0.437 z m -158.271,44.533 c 5.143,1.74 5.147,1.733 8.714,0.057 -2.901,-1.492 -5.796,-0.942 -8.714,-0.057 z m -1193.153,-14.86 c -10e-4,-0.61 0.971,-0.457 -7.581,-0.457 0.001,0.61 -0.972,0.457 7.581,0.457 z m 7.997,0.029 c 2.594,1.942 5.23,1.999 7.9,1.363 0.564,-0.134 0.984,-0.987 1.294,-1.582 0.452,-0.866 -5.426,-2.75 -9.194,0.219 z m 1093.64,7.678 c 6.036,0.326 7.087,0.555 7.94,-0.712 -2.641,-0.112 -5.258,-1.01 -7.94,0.712 z M 274.11,1525.74 c -2.035,-1.068 -4.038,-1.091 -6.063,0.029 2.042,1.862 4.042,1.423 6.063,-0.029 z m 1142.295,7.377 c 2.333,0.868 4.402,0.75 6.843,0.11 -2.372,-0.781 -4.43,-0.887 -6.843,-0.11 z m 367.323,-0.01 c -1.857,-1.554 -4.065,-0.916 -6.156,-0.844 -0.373,0.013 -0.729,0.38 -1.094,0.585 0.512,0.387 0.979,1.039 1.544,1.116 1.962,0.268 4.037,0.725 5.706,-0.857 z m 52.843,0.156 c -2.341,-1.52 -4.744,-1.813 -7.239,-0.29 2.344,1.464 4.751,1.676 7.239,0.29 z m -1293.57,-32.465 c -3.01,-0.454 -2.252,-0.46 -2.915,0.136 0.971,-0.044 1.943,-0.089 2.915,-0.136 z m 866.595,32.376 c -3.318,-0.762 -2.288,-0.611 -3.766,-0.324 1.278,0.696 1.863,1.301 3.766,0.324 z m 484.579,39.891 c 1.534,-0.231 0.771,-0.116 0.01,0 0.766,-0.107 1.53,-0.214 -0.01,0 z m -1219.031,19.287 c -0.035,0.633 -0.544,0.45 3.382,0.641 0.037,-0.61 0.546,-0.429 -3.382,-0.641 z m -98.833,7.727 c -2.715,-1.471 -1.556,-1.419 -4.447,-0.212 2.72,1.427 1.559,1.373 4.447,0.212 z m 409.951,2.723 c 1.294,-0.215 0.646,-0.107 0,0 0.649,-0.09 1.299,-0.18 0,0 z m -142.172,2.075 c -3.22,-0.413 -2.235,-0.404 -3.53,0.242 0.851,0.681 0.277,0.996 3.398,0.453 0.09,-0.016 0.09,-0.451 0.132,-0.695 z m 17.176,0.463 c 2.785,0 2.305,0.13 2.343,-0.544 -2.787,-0.01 -2.305,-0.141 -2.343,0.544 z m 49.843,-0.178 c -2.548,-1.106 -1.441,-1.067 -4.246,-0.183 2.546,1.135 1.441,1.093 4.246,0.183 z m 246.32,12.139 c -2.909,-1.027 -2.006,-0.851 -3.324,-0.323 1.157,1.053 1.63,1.925 3.324,0.323 z m 424.118,10.234 c 10e-4,-0.549 0.57,-0.412 -3.757,-0.412 0,0.549 -0.569,0.412 3.757,0.412 z M 520.218,1476.374 c 1.195,-0.298 1.26,-0.169 0.012,-0.443 z m 707.188,9.559 c -0.467,0.096 -0.933,0.193 -1.4,0.29 1.344,0.296 0.961,0.331 1.4,-0.29 z m 182.836,15.166 c -0.088,-0.238 -0.104,-0.603 -0.282,-0.684 -1.215,-0.56 -2.88,0.542 -0.802,0.939 0.325,0.063 0.721,-0.162 1.084,-0.255 z m -977.991,29.315 c -1.223,-0.012 -1.516,0.281 -0.754,0.694 0.239,0.13 0.724,-0.104 1.096,-0.172 -0.114,-0.173 -0.228,-0.348 -0.342,-0.522 z m 994.777,12.325 c -2.873,-0.996 -2.037,-0.932 -3.026,0.038 2.762,0.937 1.917,0.842 3.026,-0.038 z m -1218.988,7.819 c -1.514,-0.744 -2.094,0.591 -0.377,0.545 0.132,0 0.252,-0.353 0.377,-0.545 z m 589.939,14.659 c -0.497,0.082 -0.995,0.165 -1.492,0.247 1.447,0.284 1.023,0.295 1.492,-0.247 z m 530.084,44.813 c 1.287,0.27 0.914,0.295 1.336,-0.242 -1.306,-0.274 -0.929,-0.29 -1.336,0.242 z m 268.633,2.574 c 0.485,-0.087 0.97,-0.173 1.454,-0.26 -1.41,-0.282 -0.999,-0.299 -1.454,0.26 z"
   id="path370" />
		<path
   style="fill:#353538"
   d="m 633.793,1621.219 c 5.49,-6.228 11.087,-4.123 22.724,-2.523 1.412,2.645 -1.701,2.381 -2.155,3.878 14.605,0 19.284,0.702 21.53,0.198 10.657,-2.39 24.981,-0.698 31.591,-1.64 11.902,-1.696 23.87,-0.443 35.799,-0.749 3.141,-0.08 6.312,0.768 10.15,1.282 -3.75,3.099 -17.27,1.067 -22.48,2.949 0.69,0.771 1.114,1.739 1.785,1.902 7.568,1.844 12.408,0.778 19.953,3.215 -12.561,3.638 -20.293,3.516 -73.173,3.665 -49.524,0.141 -53.445,-0.115 -59.113,-1.791 -17.242,-5.099 -24.32,0.065 -27.853,-4.147 4.432,-3.127 31.555,0.312 41.449,-6.466 1.815,2.012 0.901,1.682 3.539,1.177 -1.499,-1.21 -0.457,-1.118 -3.746,-0.95 z"
   id="path371" />
		<path
   style="fill:#353538"
   d="m 1756.377,1623.758 c 1.46,8.224 -5.405,7.521 -13.853,7.594 -68.673,0.583 -58.095,0.78 -62.843,-0.703 -0.341,-3.113 2.596,-4.23 4.418,-6.606 10.13,-1.333 -3.245,-0.457 35.081,-0.971 30.419,-0.409 30.768,-3.464 37.197,0.686 z"
   id="path372" />
		<path
   style="fill:#353538"
   d="m 1125.461,1657.76 c -15.116,1.95 -93.86,0.843 -118.96,-0.074 -2.456,-0.09 -2.954,-1.375 -3.242,-3.08 -0.742,-4.338 43.155,-0.15 119.08,1.67 0.403,0.01 0.797,0.362 3.122,1.484 z"
   id="path373" />
		<path
   style="fill:#353538"
   d="m 367.62,1535.785 c -4.642,1.612 -93.946,2.109 -135.562,0.284 1.165,-0.754 1.676,-1.375 2.204,-1.385 5.669,-0.123 129.028,-2.129 133.358,1.101 z"
   id="path374" />
		<path
   style="fill:#353538"
   d="m 518.25,1459.131 c -0.844,0.267 -1.689,0.765 -2.534,0.765 -219.86,0.139 -2.008,-4.12 2.534,-0.765 z"
   id="path375" />
		<path
   style="fill:#353538"
   d="m 493.573,1634.796 c -21.945,2.712 -22.443,-3.142 -42.083,-3.562 -2.499,-0.052 -5.759,-1.081 -4.834,-2.982 1.145,-2.355 5.29,-2.199 5.84,-2.03 12.113,3.728 28.178,-0.25 35.948,6.311 1.224,1.035 3.137,1.417 5.129,2.263 z"
   id="path376" />
		<path
   style="fill:#353538"
   d="m 633.367,1458.623 c -4.098,0.925 -5.086,1.34 -6.075,1.341 -96.512,0.104 -74.216,-2.991 6.075,-1.341 z"
   id="path377" />
		<path
   style="fill:#353538"
   d="m 166.18,1588.748 c -3.401,-0.616 -6.039,1.657 -9.512,1.975 -1.179,-0.926 -2.514,-1.976 -4.109,-3.23 -6.982,0 -4.73,0.379 -7.954,-2.676 2.005,-1.04 3.547,-1.841 4.864,-2.523 11.118,1.856 22.029,1.796 34.146,2.531 -5.008,1.498 -8.588,3.234 -12.863,2.524 -3.427,-0.569 -5.783,2.542 -4.572,1.399 z"
   id="path378" />
		<path
   style="fill:#353538"
   d="m 1353.517,1640.947 c 1.604,-0.688 3.167,-1.872 4.819,-1.981 10.405,-0.687 20.83,-1.229 32.078,0.141 -2.72,1.952 -5.248,1.047 -7.462,1.359 -2.237,0.315 -4.531,0.381 -6.802,0.411 -16.236,0.216 -14.41,-1.92 -15.148,5.794 -3.16,0.259 -6.23,0.512 -9.032,0.742 -3.162,-3.569 -2.537,-3.299 1.801,-6.695 0.931,0.718 1.015,0.641 -0.254,0.229 z"
   id="path379" />
		<path
   style="fill:#353538"
   d="m 539.039,1627.371 c 11.396,-2.707 9.289,1.214 34.011,1.57 -2.308,2.032 -4.388,1.249 -6.234,1.394 -2.286,0.18 -4.591,0.377 -6.877,0.302 -21.94,-0.717 -17.534,-0.524 -20.9,-3.266 z"
   id="path380" />
		<path
   style="fill:#353538"
   d="m 1835.499,1511.312 c 0.382,-0.549 0.53,-0.988 0.723,-1.005 13.355,-1.201 26.66,0.054 39.982,0.689 -13.5,0.468 -26.996,1.669 -40.705,0.316 z"
   id="path381" />
		<path
   style="fill:#353538"
   d="m 749.511,1639.159 c 0.281,0 0.552,0.416 0.828,0.639 -16.484,2.162 -88.187,-2.179 -0.828,-0.639 z"
   id="path382" />
		<path
   style="fill:#353538"
   d="m 1637.015,1494.772 c 2.9,1.643 4.78,2.708 7.423,4.205 -8.957,0 -17.027,0 -24.906,0 -3.269,-4.167 5.914,-1.499 9.206,-3.279 2.084,-1.128 5.251,-0.654 8.277,-0.926 z"
   id="path383" />
		<path
   style="fill:#353538"
   d="m 512.351,1616.982 c 1.572,0.105 2.152,0.976 2.344,3.667 -5.866,0.736 -11.708,1.057 -17.467,-0.664 -0.668,-0.2 -1.084,-1.196 -1.492,-1.883 -1.517,-2.549 14.006,-1.294 16.615,-1.12 z"
   id="path384" />
		<path
   style="fill:#353538"
   d="m 360.079,1571.597 c -0.795,0.406 -1.55,1.07 -2.392,1.176 -6.176,0.779 -17.639,2.984 -20.225,-1.945 -0.867,-1.646 13.088,0.769 22.617,0.769 z"
   id="path385" />
		<path
   style="fill:#353538"
   d="m 517.494,1629.616 c -2.633,1.044 1.866,1.036 -23.898,1.146 -0.311,10e-4 -0.944,-0.64 -0.878,-0.816 0.219,-0.581 0.623,-1.491 1.077,-1.551 2.219,-0.295 4.657,-0.913 6.686,-0.39 4.922,1.268 9.827,0.435 14.726,0.656 0.779,0.036 1.526,0.622 2.287,0.955 z"
   id="path386" />
		<path
   style="fill:#353538"
   d="m 1847.861,1547.911 c 6.295,-2.337 14.486,-0.75 8.929,1.938 -4.077,1.972 -10.919,1.85 -8.929,-1.938 z"
   id="path387" />
		<path
   style="fill:#353538"
   d="m 1901.137,1510.573 c -4.17,0.691 -8.314,1.612 -12.86,0.605 2.658,-1.165 -0.646,-1.021 12.86,-0.605 z"
   id="path388" />
		<path
   style="fill:#353538"
   d="m 1602.406,1632.702 c 1.927,-1.478 3.779,-1.23 5.504,-1.18 11.348,0.329 9.435,0.694 11.327,1.99 1.304,-1.182 -8.838,1.285 -16.831,-0.81 z"
   id="path389" />
		<path
   style="fill:#353538"
   d="m 685.462,1458.462 c -6.701,1.813 -6.702,1.8 -12.888,0.917 1.839,-1.613 6.619,-0.686 12.888,-0.917 z"
   id="path390" />
		<path
   style="fill:#353538"
   d="m 639.077,1458.848 c 2.712,-1.077 5.417,-0.559 8.111,-0.355 1.144,0.086 1.644,0.633 1.281,1.667 -0.456,1.303 -6.697,1.976 -9.392,-1.312 z"
   id="path391" />
		<path
   style="fill:#353538"
   d="m 543.958,1459.41 c 2.906,-1.542 0.128,-1.204 11.338,-1.204 0.415,0.574 0.608,0.842 0.803,1.11 -3.76,1.301 -7.404,0.536 -12.141,0.094 z"
   id="path392" />
		<path
   style="fill:#353538"
   d="m 1134.439,1657.047 c 2.999,-1.132 5.93,-1.136 8.868,0.244 -3.027,1.068 -5.983,1.778 -8.868,-0.244 z"
   id="path393" />
		<path
   style="fill:#353538"
   d="m 1918.696,1535.578 c -3.961,2.821 -9.368,0.495 -8.8,-0.242 0.924,-1.204 5.97,-1.859 8.8,0.242 z"
   id="path394" />
		<path
   style="fill:#353538"
   d="m 1835.115,1547.513 c -1.379,2.718 -5.225,-0.428 -4.137,-1.637 1.645,-1.827 4.959,-0.962 4.137,1.637 z"
   id="path395" />
		<path
   style="fill:#353538"
   d="m 500.992,1636.861 c 2.045,-1.124 3.996,-0.793 5.923,0.259 -2.018,0.63 -4.017,1.186 -5.923,-0.259 z"
   id="path396" />
		<path
   style="fill:#353538"
   d="m 1380.885,1647.193 c -1.966,0.111 -7.224,0.915 -5.423,-1.465 1.793,-2.368 2.734,-0.707 5.423,1.465 z"
   id="path397" />
		<path
   style="fill:#353538"
   d="m 526.035,1459.173 c 2.153,-1.798 4.254,-1.873 6.365,0.049 -2.144,1.417 -4.241,1.177 -6.365,-0.049 z"
   id="path398" />
		<path
   style="fill:#353538"
   d="m 1071.392,1461.354 c 2.111,-0.825 4.176,-1.08 6.171,0.262 -2.116,0.923 -4.173,1.01 -6.171,-0.262 z"
   id="path399" />
		<path
   style="fill:#353538"
   d="m 1591.935,1498.317 c 0.739,0.051 1.478,0.102 2.216,0.152 -0.738,-0.051 -1.477,-0.101 -2.216,-0.152 z"
   id="path400" />
		<path
   style="fill:#353538"
   d="m 1760.867,1498.157 c 0.618,0.096 1.111,0.826 1.662,1.269 -1.776,1.612 -0.412,1.775 -4.951,-0.025 0.622,0.896 0.487,-1.677 3.289,-1.244 z"
   id="path401" />
		<path
   style="fill:#353538"
   d="m 1634.332,1642.667 c -2.329,-0.214 -1.289,-1.899 -0.215,-1.667 0.779,0.169 1.507,0.527 2.255,0.809 -0.869,0.853 -0.316,0.702 -2.04,0.858 z"
   id="path402" />
		<path
   style="fill:#353538"
   d="m 1929.329,1485.204 c 1.125,-0.024 2.344,-0.384 3.145,0.721 -0.32,0.137 -0.779,0.468 -0.936,0.378 -2.281,-1.307 -1.571,-1.668 -2.209,-1.099 z"
   id="path403" />
		<path
   style="fill:#353538"
   d="m 260.188,1497.115 c 2.691,-1.203 2.208,-1.203 2.462,-0.423 -2.949,0.212 -2.598,0.092 -2.462,0.423 z"
   id="path404" />
		<path
   style="fill:#353538"
   d="m 1603.821,1498.671 c -1.365,0.301 -0.841,0.366 -2.004,-0.262 1.377,-0.287 0.848,-0.353 2.004,0.262 z"
   id="path405" />
		<path
   style="fill:#353538"
   d="m 1909.355,1510.751 c 1.561,-0.139 1.293,-0.285 1.073,0.464 z"
   id="path406" />
		<path
   style="fill:#353538"
   d="m 1921.226,1510.595 c 0.105,0.165 0.211,0.33 0.317,0.495 -0.341,0.061 -0.795,0.277 -1.002,0.155 -0.701,-0.412 -0.433,-0.683 0.685,-0.65 z"
   id="path407" />
		<path
   style="fill:#353538"
   d="m 444.68,1617.248 c 2.999,-0.698 2.047,1.361 0.271,0.599 -0.161,-0.069 -0.186,-0.391 -0.271,-0.599 z"
   id="path408" />
		<path
   style="fill:#353538"
   d="m 583.001,1617.608 c -1.481,0.573 -0.91,0.637 -2.181,-0.25 1.532,-0.568 0.962,-0.624 2.181,0.25 z"
   id="path409" />
		<path
   style="fill:#353538"
   d="m 605.292,1617.248 c 1.576,-0.192 1.294,-0.331 1.109,0.441 z"
   id="path410" />
		<path
   style="fill:#353538"
   d="m 615.773,1617.6 c -1.544,0.298 -1.112,0.354 -1.511,-0.432 1.42,-0.294 1.093,-0.421 1.511,0.432 z"
   id="path411" />
		<path
   style="fill:#353538"
   d="m 529.721,1629.34 c -0.124,0.215 -0.239,0.606 -0.376,0.613 -1.825,0.081 -1.256,-1.431 0.376,-0.613 z"
   id="path412" />
		<path
   style="fill:#353538"
   d="m 580.026,1629.38 c 1.4,-0.478 0.864,-0.534 2.043,0.23 -1.347,0.45 -0.885,0.532 -2.043,-0.23 z"
   id="path413" />
		<path
   style="fill:#353538"
   d="m 238.648,1632.142 c -0.137,0.214 -0.268,0.602 -0.413,0.605 -1.948,0.059 -1.301,-1.418 0.413,-0.605 z"
   id="path414" />
		<path
   style="fill:#353538"
   d="m 758.227,1639.449 c 1.186,0.351 1.203,0.231 -0.051,0.359 z"
   id="path415" />
		<path
   style="fill:#353538"
   d="m 973.734,1654.068 c 1.487,-0.261 1.235,-0.425 1.001,0.516 z"
   id="path416" />
		<path
   style="fill:#353538"
   d="m 1732.805,1654.83 c 0.01,-0.663 -0.25,-0.575 1.003,-0.268 z"
   id="path417" />
		<path
   style="fill:#353538"
   d="m 1929.637,1484.93 c -1.334,-0.642 -1.231,-0.732 -0.308,0.274 z"
   id="path418" />
		<path
   style="fill:#353538"
   d="m 332.465,1497.174 c -0.41,-0.084 -1.181,-0.203 -1.175,-0.248 0.096,-0.81 0.432,-0.634 0.892,0.518 z"
   id="path419" />
		<path
   style="fill:#353538"
   d="m 260.089,1496.876 c -0.309,0.97 -0.365,0.939 0.099,0.239 z"
   id="path420" />
		<path
   style="fill:#353538"
   d="m 380.713,1530.296 c 0.328,0.732 0.469,0.608 -0.427,0.499 z"
   id="path421" />
		<path
   style="fill:#353538"
   d="m 1833.944,1553.56 c -0.397,-0.935 -0.557,-0.766 0.489,-0.662 z"
   id="path422" />
		<path
   style="fill:#353538"
   d="m 165.881,1589.031 c 1.447,0.302 1.346,0.395 0.299,-0.283 z"
   id="path423" />
		<path
   style="fill:#353538"
   d="m 1619.237,1633.512 c 1.206,0.701 1.105,0.787 0.295,-0.267 z"
   id="path424" />
		<path
   style="fill:#353538"
   d="m 1337.106,1476.824 c -9.069,0.428 -7.804,0.736 -8.988,-1.089 -0.684,-1.07 5.163,-0.419 8.776,-0.171 0.072,0.421 0.142,0.841 0.212,1.26 z"
   id="path425" />
		<path
   style="fill:#353538"
   d="m 642.048,1601.192 c 1.071,0 2.142,0 3.213,0.01 -1.073,0.79 -2.144,0.825 -3.213,-0.01 z"
   id="path426" />
		<path
   style="fill:#353538"
   d="m 1101.689,1606.007 c -0.696,1.049 -0.784,0.97 0.266,0.236 z"
   id="path427" />
	</g>
	
</g>
</svg>
