<?xml version="1.0" encoding="UTF-8" standalone="no"?>
<!-- Created with Inkscape (http://www.inkscape.org/) -->

<svg
   version="1.1"
   id="svg1"
   width="1535"
   height="1024"
   viewBox="0 0 1535 1024"
   sodipodi:docname="favicon.svg"
   inkscape:version="1.4.3 (0d15f75, 2025-12-25)"
   xmlns:inkscape="http://www.inkscape.org/namespaces/inkscape"
   xmlns:sodipodi="http://sodipodi.sourceforge.net/DTD/sodipodi-0.dtd"
   xmlns="http://www.w3.org/2000/svg"
   xmlns:svg="http://www.w3.org/2000/svg">
  <defs
     id="defs1" />
  <sodipodi:namedview
     id="namedview1"
     pagecolor="#ffffff"
     bordercolor="#000000"
     borderopacity="0.25"
     inkscape:showpageshadow="2"
     inkscape:pageopacity="0.0"
     inkscape:pagecheckerboard="0"
     inkscape:deskcolor="#d1d1d1"
     inkscape:zoom="0.79394531"
     inkscape:cx="767.05535"
     inkscape:cy="512"
     inkscape:window-width="1920"
     inkscape:window-height="1094"
     inkscape:window-x="-11"
     inkscape:window-y="-11"
     inkscape:window-maximized="1"
     inkscape:current-layer="g1" />
  <g
     inkscape:groupmode="layer"
     inkscape:label="Image"
     id="g1">
    <path
       style="fill:#000000"
       d="m 363,741.33389 c -13.00838,-2.04878 -28.80533,-6.70509 -37.49309,-11.05145 -8.84582,-4.42544 -20.84074,-12.96698 -26.97561,-19.20925 -3.28278,-3.34026 -6.43278,-6.06925 -7,-6.06444 -0.56721,0.005 -2.77714,2.7184 -4.91094,6.0302 C 276.19799,727.21514 257.14908,738 239,738 c -11.31605,0 -21.50806,-3.58699 -34,-11.96602 -3.025,-2.02903 -8.98574,-5.59728 -13.24608,-7.92944 -10.52591,-5.76201 -16.76311,-10.88541 -20.6769,-16.98451 C 169.26999,698.30401 167.45887,696 167.0523,696 c -0.40656,0 -3.39715,0.92939 -6.64575,2.06531 -3.3704,1.17851 -9.81979,2.31155 -15.02027,2.63879 -7.64614,0.48114 -10.30315,0.21594 -16.5,-1.64687 -22.6422,-6.80639 -38.444845,-24.12291 -48.802933,-53.47819 -9.904504,-28.06981 -11.922647,-45.88187 -6.822739,-60.21725 4.92926,-13.85572 6.527267,-16.0306 22.114144,-30.09726 l 4.693208,-4.23547 -5.615616,-6.76453 C 87.914461,536.38904 79.037963,518.94864 75.995084,508 c -1.146433,-4.125 -2.337224,-11.325 -2.646202,-16 -0.736622,-11.14545 1.23824,-19.5584 7.629072,-32.5 2.716014,-5.5 6.773504,-15.6135 9.016643,-22.47445 6.340014,-19.3918 9.025151,-22.80024 21.181113,-26.8867 l 5.32429,-1.78987 9.15921,-15.25549 9.15921,-15.2555 -2.8857,-8.53704 C 128.5642,359.33557 126,343.46404 126,332.5795 126,299.4705 146.13042,277 175.79145,277 c 4.71942,0 11.46886,0.7243 14.99875,1.60957 6.46894,1.62235 9.93168,1.60509 35.7098,-0.17799 8.47032,-0.58589 13.27027,0.0384 24.18595,3.14589 1.91306,0.54461 2.26668,0.14169 2.83268,-3.22759 1.11628,-6.64499 4.59226,-16.58618 8.297,-23.72915 11.91232,-22.96771 39.17373,-36.94142 63.77008,-32.68741 23.4497,4.05569 55.98721,30.58197 70.48801,57.46552 3.69769,6.85528 4.39791,7.59583 7.74573,8.19189 17.07937,3.04085 39.08859,18.15583 58.16529,39.9454 16.52406,18.87392 26.70173,36.60973 29.4524,51.32434 3.08675,16.51246 1.33909,27.22137 -7.01987,43.01473 -6.4779,12.2393 -7.1277,14.78562 -12.89012,50.51186 -4.09331,25.37796 -4.98878,30.42882 -6.17254,34.81586 -0.3282,1.21632 0.76991,2.32987 3.84294,3.89701 6.0895,3.10543 14.9307,12.67924 18.55412,20.09158 1.6961,3.46967 5.18199,13.50849 7.74642,22.30849 9.72684,33.37824 11.96552,39.72602 23.98172,68 8.2951,19.51829 10.4667,32.45816 8.10169,48.27529 -2.52289,16.87294 -7.33181,27.52054 -17.28491,38.27107 -16.78211,18.12668 -41.29466,26.79811 -91.79659,32.47346 -11.75901,1.32147 -48.82627,1.86517 -55.5,0.81407 z m 61,-12.82112 c 17.82897,-2.33346 41.12573,-7.12485 50.76121,-10.43996 21.53127,-7.40786 35.71626,-22.23195 40.73742,-42.57281 2.24741,-9.10432 2.24832,-24.82679 0.002,-33.50359 -0.92504,-3.57303 -4.95504,-14.14641 -8.95555,-23.49641 -7.23134,-16.90113 -13.13176,-33.86793 -22.08291,-63.5 -5.64047,-18.67236 -7.85792,-23.26659 -13.93231,-28.86576 -4.32311,-3.98491 -11.46601,-8.06133 -14.2147,-8.11228 -0.6517,-0.0121 -2.35161,-0.46554 -3.7776,-1.0077 l -2.5927,-0.98574 1.88001,-3.76426 c 2.64842,-5.30284 3.47403,-9.19027 8.65747,-40.76426 6.02386,-36.69329 7.70619,-43.67256 12.14159,-50.37032 6.24638,-9.43248 8.61356,-17.21933 8.70333,-28.62968 0.0941,-11.96291 -1.58161,-18.40378 -7.89418,-30.34222 -5.77154,-10.91524 -15.38523,-23.16749 -28.40301,-36.19846 -17.24292,-17.2604 -31.4194,-25.87072 -46.17419,-28.04468 l -7.64418,-1.12629 -2.53651,-6.87028 C 385.25292,280.64881 380.16884,273.21659 370.0106,262.63316 350.60551,242.41582 331.99857,232 315.28716,232 c -22.15322,0 -44.22906,18.68275 -49.74972,42.10311 -1.89276,8.02969 -1.8998,13.52233 -0.0287,22.35548 0.81072,3.82722 1.14041,7.2903 0.73263,7.69574 -0.40777,0.40544 -3.21641,-1.33135 -6.24141,-3.85953 -3.025,-2.52818 -8.425,-5.99127 -12,-7.69575 -6.43146,-3.06637 -6.64236,-3.09537 -20,-2.75016 -28.72051,0.74226 -34.60501,0.60226 -42.87411,-1.02002 -14.98736,-2.94031 -27.49341,0.51123 -36.41629,10.05051 -9.47068,10.12491 -12.2501,19.54181 -11.44278,38.76904 0.59185,14.09554 2.82023,24.17658 7.74504,35.038 l 2.91943,6.43867 -4.85004,6.68746 c -2.66752,3.6781 -8.18655,12.5054 -12.26451,19.61622 l -7.41446,12.92876 -6.95114,1.91904 c -3.82313,1.05546 -7.90531,2.79866 -9.07151,3.87376 -1.2566,1.15844 -3.63395,6.71993 -5.83586,13.6522 -2.04352,6.43361 -6.65192,17.88928 -10.240889,25.45705 -6.001847,12.65561 -6.56679,14.42303 -7.041288,22.02866 -0.683856,10.96138 2.019017,21.66508 9.14411,36.21176 5.860742,11.96537 11.522857,19.20703 18.330647,23.4443 l 4.36755,2.71844 -5.58056,7.1322 c -3.06931,3.92271 -8.26081,9.1946 -11.536673,11.71532 -10.026484,7.7152 -15.151583,16.56384 -16.790751,28.98974 -1.879306,14.24629 3.607163,38.19813 13.27984,57.97473 6.398944,13.08319 12.424944,20.98399 20.587954,26.99325 15.34201,11.29415 32.70615,12.33875 49.7129,2.99067 7.08574,-3.89481 7.21966,-3.93571 7.23316,-2.20865 0.022,2.81919 4.98226,11.56886 9.21219,16.25 2.65962,2.94332 7.75938,6.81031 12.39805,9.40106 4.334,2.42058 11.25499,6.56081 15.37999,9.20052 10.77628,6.89606 17.87523,9.86864 25.20153,10.55278 16.67803,1.55742 34.98473,-8.4061 43.4619,-23.65436 1.68173,-3.025 4.9491,-8.98234 7.26084,-13.23852 l 4.20315,-7.73852 4.99316,7.46538 c 14.4006,21.5307 36.23307,34.86506 65.60813,40.07071 10.14455,1.79774 46.08185,1.20347 63.27129,-1.04628 z"
       id="path51" />
    <path
       style="fill:#000000"
       d="m 154,427.42113 c 0,-0.97154 11.92041,-19.04265 23.19796,-35.16764 l 9.96377,-14.24652 -3.25463,-2.73859 c -8.20943,-6.90778 -15.45803,-23.63311 -16.58694,-38.27251 -0.4901,-6.35554 -0.24788,-8.37084 1.47395,-12.26332 2.62302,-5.92978 4.85987,-6.53827 13.83402,-3.76324 8.15089,2.52046 24.31153,2.9381 39.53628,1.02176 12.65019,-1.59229 15.00725,-0.56196 21.333,9.32525 6.02802,9.42186 9.67739,20.90315 9.78492,30.78437 0.0716,6.58098 -0.28776,8.23286 -2.67869,12.31267 -3.26603,5.57306 -7.35636,8.31657 -13.57107,9.10253 -21.63011,2.7355 -26.07324,4.99949 -68.53257,34.92065 -11.86179,8.35902 -14.5,9.99373 -14.5,8.98459 z"
       id="path50" />
    <path
       style="fill:#000000"
       d="m 136.42027,655.11451 c -4.63607,-2.82707 -8.76201,-8.3725 -13.75788,-18.49113 -5.03344,-10.19473 -9.86283,-26.59097 -9.97245,-33.85741 -0.0726,-4.81209 2.11582,-9.23067 5.36024,-10.82275 0.7974,-0.39129 2.7662,-1.32609 4.3751,-2.07733 5.21791,-2.43638 23.5053,-26.58073 36.41063,-48.07198 7.98701,-13.30076 20.4939,-36.79744 19.90182,-37.38952 -0.2273,-0.22729 -7.34877,2.25485 -15.8255,5.51587 -8.47672,3.26102 -18.39168,6.71666 -22.03323,7.67919 -8.41387,2.22394 -11.55728,1.13738 -15.7838,-5.45588 C 120.74022,505.3499 116,493.62951 116,489.6553 c 0,-2.18612 1.92747,-7.25439 5.25,-13.80482 L 126.5,465.5 l 6.73208,0.3375 c 8.80089,0.44121 15.84036,-1.91099 35.26792,-11.78458 16.15036,-8.20804 24.12128,-13.24421 32,-20.21817 8.89586,-7.87431 10.51509,-8.83498 14.88486,-8.83101 6.67057,0.006 17.01525,7.61832 26.94494,19.82778 12.34268,15.17645 13.40676,23.98026 3.93003,32.51572 -2.53589,2.28402 -6.18981,5.72776 -8.11981,7.65276 -5.27597,5.26229 -19.2441,27.17449 -37.92881,59.5 -2.22536,3.85 -3.6976,7.12855 -3.27164,7.28568 0.94569,0.34882 14.44393,-7.54801 22.31043,-13.05219 5.47711,-3.83233 5.75,-4.22632 5.75,-8.30166 0,-4.95615 3.115,-9.4084 7.99753,-11.43081 2.30715,-0.95565 4.15004,-3.33245 7.66037,-9.8797 C 246.97382,497.34126 251.01571,491 252.20833,491 c 0.63862,0 0.75546,2.79982 0.3234,7.75 -0.88366,10.12431 0.73062,24.72648 4.44967,40.25 2.1953,9.16332 2.97127,14.76894 2.90697,21 -0.10806,10.47019 -0.72292,12.78733 -4.05285,15.27348 -2.29163,1.71095 -3.06631,1.80546 -6.23288,0.76039 -1.9888,-0.65636 -6.12027,-3.48214 -9.18104,-6.27952 l -5.56505,-5.08614 -14.98398,14.9159 c -18.88125,18.79546 -36.07274,37.5802 -52.52279,57.39045 -7.06738,8.51101 -14.37883,16.49851 -16.24766,17.75 -4.20797,2.81792 -10.42928,2.98316 -14.68185,0.38995 z"
       id="path49" />
    <path
       style="fill:#000000"
       d="M 370.46589,697.94706 C 346.42862,695.61213 328.72982,685.29363 318.24159,667.5 309.01425,651.84549 305.6491,634.96981 305.7934,605.07423 l 0.0986,-20.42577 -2.10732,3.42577 c -6.68047,10.86017 -15.56649,27.46312 -31.31663,58.5131 -9.74022,19.20197 -19.08685,37.0014 -20.77028,39.55428 -6.48462,9.83379 -12.75347,10.42435 -26.13109,2.46171 -4.98667,-2.96817 -11.76668,-6.92429 -15.06668,-8.79139 -9.44783,-5.34544 -10.75836,-10.07782 -5.96666,-21.54598 1.47644,-3.5336 1.49364,-3.54134 6.54294,-2.94332 7.51496,0.89003 10.51735,-0.0985 16.27161,-5.3576 C 233.4758,644.36447 245.42735,624.83335 260.98228,595 271.30535,575.20103 289,538.4978 289,536.88408 c 0,-1.22818 -0.14176,-1.19116 -6.1507,1.60615 -7.06808,3.29037 -9.42728,3.17305 -12.99501,-0.64622 C 266.70506,534.47275 259,519.45825 259,516.69274 c 0,-0.91365 1.26326,-3.07502 2.80725,-4.80305 l 2.80726,-3.14186 -3.22981,-12.62392 C 254.58871,469.56137 253.18458,444.75352 257.01945,419 c 1.61318,-10.8335 1.89593,-16.36402 1.43151,-28 -0.35915,-8.99845 -0.20002,-15.05115 0.41939,-15.95261 0.54897,-0.79894 2.24184,-1.47394 3.76194,-1.5 2.43931,-0.0418 3.62987,-1.45632 10.14016,-12.04739 11.36149,-18.48311 21.51665,-39.67717 26.25878,-54.8027 2.58254,-8.2373 2.4871,-9.6314 -1.01303,-14.79682 -1.8464,-2.72488 -2.98873,-5.69975 -3,-7.81262 -0.04,-7.50476 9.8533,-18.21456 18.11541,-19.61043 3.43886,-0.581 5.15853,-0.14297 11.24143,2.86336 14.14274,6.98972 28.99017,20.57455 34.26079,31.34731 2.11194,4.31665 2.47013,6.11962 1.93058,9.71761 -0.80586,5.37385 -3.29543,8.03657 -12.32739,13.18472 -5.25816,2.99712 -13.1057,10.15391 -35.71222,32.56885 -15.93526,15.80021 -28.67487,29.02598 -28.31024,29.39061 0.36463,0.36463 9.12757,-3.74308 19.4732,-9.12825 10.34563,-5.38517 30.23046,-15.52913 44.18852,-22.54215 13.95805,-7.01301 27.00805,-14.06036 29,-15.66076 8.70376,-6.99294 16.81921,-8.16707 25.7363,-3.7235 10.70873,5.33638 28.07991,21.8763 38.86456,37.00477 11.48277,16.10777 12.28084,23.9569 3.47882,34.21428 -2.73066,3.18215 -5.91019,8.26072 -7.06563,11.28572 -3.04474,7.97124 -9.26326,36.47754 -12.87059,59 -1.71778,10.725 -3.5707,21.19496 -4.1176,23.26658 -2.14666,8.13145 -11.32105,14.2599 -25.89696,17.29906 -10.65869,2.2224 -14.76959,0.87066 -23.15146,-7.61263 l -6.64428,-6.72467 -5.47541,5.63583 c -5.23864,5.39212 -21.73797,28.00039 -21.73424,29.78143 9.8e-4,0.46992 2.01479,2.12614 4.47513,3.68049 5.31969,3.36078 9.16211,7.70369 11.65574,13.17391 2.48793,5.45773 2.30985,9.0302 -0.77262,15.5 -3.28062,6.88567 -9.36597,25.18138 -8.72212,26.22316 0.87439,1.41479 5.81793,0.79277 8.67598,-1.09166 5.17625,-3.41291 13.23084,-18.02633 20.56252,-37.30652 5.19161,-13.65243 5.66076,-16.44196 3.62215,-21.53695 -2.46868,-6.16985 -1.71234,-9.2083 3.13854,-12.60843 5.63592,-3.9504 11.84521,-4.59271 17.57659,-1.81819 6.21787,3.01002 15.43525,11.54486 16.74101,15.50136 1.37647,4.17076 0.80571,5.78701 -4.46267,12.63723 C 406.52891,553.15306 391,579.56613 391,581.15394 c 0,0.39835 2.3625,-0.0783 5.25,-1.05915 5.21726,-1.77229 5.25091,-1.81065 5.39649,-6.15169 0.19465,-5.80445 3.62298,-8.9431 9.76848,-8.9431 3.62764,0 5.0493,0.65652 9.05287,4.1806 2.61217,2.29933 7.40723,7.26867 10.65568,11.04298 3.40292,3.95379 6.08108,6.31436 6.31871,5.5694 0.22684,-0.71114 1.147,-8.49298 2.04479,-17.29298 1.74472,-17.1013 2.89938,-20.5 6.9646,-20.5 3.6858,0 4.99035,2.02502 7.49948,11.64123 6.16844,23.64044 16.72935,55.12969 23.76473,70.85877 8.45555,18.90416 9.94332,24.98943 8.18875,33.49363 -1.54063,7.46728 -3.97092,11.93014 -8.9426,16.42175 -5.27457,4.76526 -7.78214,5.7878 -21.96198,8.95565 -20.74226,4.63393 -64.20287,10.16926 -74.5,9.48864 -1.1,-0.0727 -5.61535,-0.48338 -10.03411,-0.91261 z m 19.92583,-57.94388 c 11.82598,-3.00418 24.86548,-8.67377 31.38434,-13.64594 l 3.31285,-2.52684 -4.62278,-4.06913 c -2.54253,-2.23802 -5.9618,-6.44176 -7.59839,-9.34163 l -2.97562,-5.27251 -3.69606,1.54317 c -6.9644,2.90776 -21.69702,10.5258 -30.783,15.91747 -11.90794,7.06623 -13.373,7.03811 -22.1061,-0.42431 C 345.93528,615.88436 342,613 340.77749,613 c -1.17038,0 -0.93404,14.45662 0.28912,17.6849 2.11373,5.57875 8.36626,10.19054 16.66786,12.29402 6.05526,1.53429 19.85249,0.27709 32.65725,-2.97574 z M 300.12505,492.75 c 4.33014,-2.3375 7.87342,-4.79035 7.87396,-5.45078 C 308.00105,484.82066 305.80872,476 305.19065,476 c -0.35399,0 -3.9167,3.25124 -7.91713,7.22497 -5.32571,5.29017 -7.27352,7.92348 -7.27352,9.83334 0,2.4204 0.69189,3.94169 1.7927,3.94169 0.25265,0 4.00221,-1.9125 8.33235,-4.25 z M 298.25,461.59718 c 6.47389,-7.68424 6.75,-8.22847 6.75,-13.30458 0,-2.91093 -0.37955,-5.2926 -0.84345,-5.2926 -0.4639,0 -3.5014,0.92479 -6.75,2.05509 -4.18571,1.45634 -7.14477,1.87551 -10.15655,1.43872 l -4.25,-0.61636 0.0195,3.81128 c 0.0107,2.0962 0.682,8.76127 1.4917,14.81127 0.80969,6.05 1.49704,11.225 1.52743,11.5 0.0304,0.275 1.27163,-1.05044 2.75831,-2.94542 1.48667,-1.89498 5.74054,-7.05081 9.45304,-11.4574 z M 364,474.43724 c 0,-0.30952 1.35112,-10.09702 3.00248,-21.75 1.65137,-11.65298 3.23878,-22.91911 3.52759,-25.03585 l 0.5251,-3.84861 -3.77758,2.30892 c -2.07768,1.2699 -9.44531,5.98437 -16.37252,10.47659 l -12.59494,8.16768 -1.15506,10.15786 C 335.96299,465.39718 335.72477,470 336.37427,470 c 0.20585,0 2.28743,-0.675 4.62573,-1.5 6.55205,-2.3117 9.16305,-1.88699 15.09588,2.45551 4.9424,3.61755 7.90412,4.92218 7.90412,3.48173 z M 304.99901,407.375 c 5.4e-4,-3.36875 -0.28867,-7.57331 -0.6427,-9.34346 l -0.64369,-3.21846 -6.10631,0.24152 c -9.27356,0.3668 -9.94535,0.20302 -14.23785,-3.4712 -3.72718,-3.19033 -4.06725,-3.29536 -5.13482,-1.5859 -0.76793,1.22965 -0.84621,2.8666 -0.23841,4.98586 0.49769,1.73534 1.42417,8.63649 2.05886,15.3359 0.63468,6.69941 1.31052,12.72367 1.50187,13.38726 0.22497,0.78019 4.42807,-0.80989 11.89498,-4.5 L 304.99802,413.5 Z m 69.49263,-11.66379 C 376.38602,378.59158 376.12704,374 373.26706,374 c -0.93216,0 -8.76111,2.09803 -17.39766,4.66229 l -15.70283,4.66229 1.5527,2.36973 c 1.15921,1.76917 1.41326,3.90755 1.00246,8.43789 l -0.55024,6.06817 2.66425,-0.63166 c 7.02063,-1.6645 10.93158,-1.74039 13.78003,-0.26741 3.31915,1.7164 12.38423,11.02351 12.38423,12.71488 0,0.60602 0.37809,0.86818 0.8402,0.58258 0.4621,-0.28559 1.65525,-7.885 2.65144,-16.88755 z"
       id="path48" />
    <path
       style="fill:#000000"
       d="m 1285,771.46062 c -30.0171,-3.63524 -57.5876,-12.64348 -90.8201,-29.67404 -22.2369,-11.39566 -47.395,-27.13868 -66.6799,-41.72586 -4.4,-3.32817 -8.7492,-6.05336 -9.6648,-6.05597 -0.9157,-0.003 -3.3756,2.35775 -5.4666,5.24525 -22.4266,30.97019 -47.7817,50.71953 -74.3686,57.92647 -7.3303,1.98703 -10.8394,2.30148 -25.5,2.28501 -18.81334,-0.0211 -23.24066,-0.8413 -38.43718,-7.1205 -21.17057,-8.7477 -33.67912,-21.01015 -39.62047,-38.84098 -2.44209,-7.32909 -2.62868,-9.00637 -2.22481,-20 l 0.44083,-12 -5.40324,-6 c -10.51552,-11.67691 -16.91246,-29.14029 -17.94901,-49 -1.37384,-26.32215 6.12241,-48.17287 21.52656,-62.7475 l 5.0177,-4.7475 -1.96394,-5.58777 c -1.08017,-3.07327 -2.42437,-9.25975 -2.98711,-13.74773 -2.30098,-18.35062 3.80048,-45.67898 13.07976,-58.58415 1.69508,-2.35743 1.63268,-2.61813 -2.6327,-11 -5.49956,-10.80714 -6.90824,-19.04448 -5.46596,-31.96265 1.2501,-11.19692 6.68151,-27.78027 12.73781,-38.89151 l 4.50701,-8.26882 -3.08209,-5.38693 c -14.22669,-24.86567 -5.31235,-58.34811 20.15341,-75.69662 3.13311,-2.13442 10.44194,-6.39236 16.24183,-9.46207 5.79989,-3.06971 10.7528,-5.9171 11.00646,-6.32753 0.25366,-0.41043 -0.70551,-3.6347 -2.13148,-7.16506 -7.18205,-17.78095 -2.43729,-40.03531 12.13652,-56.92416 3.085,-3.575 9.5865,-11.225 14.4479,-17 17.6187,-20.92992 32.7149,-29.00022 54.2465,-28.99983 18.7268,3.4e-4 37.9079,5.79044 64.8557,19.57769 19.8,10.13022 29.8829,17.9984 36.9347,28.82188 4.6747,7.17511 8.9586,18.23176 9.1439,23.60026 0.1954,5.66391 1.0755,7.17165 8.0505,13.7924 l 6.6291,6.2924 10.3709,-3.93865 c 5.704,-2.16626 24.0959,-8.49716 40.8709,-14.06866 l 30.5,-10.13002 7,-7.31255 c 11.3086,-11.81357 20.6254,-17.40915 36.4375,-21.88424 11.218,-3.17486 28.4739,-2.93612 40.0625,0.55426 12.2918,3.70218 22.5764,8.68162 35.3039,17.09289 23.1367,15.29042 40.8627,32.60272 48.4571,47.32625 5.7649,11.17645 7.239,17.24772 7.239,29.81381 0,13.34482 -1.0216,17.41867 -7.8588,31.33982 -4.5251,9.21351 -20.3151,24.46279 -28.3912,27.41895 -2.8368,1.03839 -2.0853,2.80902 4.3309,10.20334 19.6586,22.65548 26.0002,38.33131 24.2727,60 -0.6269,7.86304 -2.0587,12.80689 -6.6598,22.99443 l -3.164,7.00557 -0.7105,27 c -1.266,48.11086 -3.8326,82.26792 -7.7395,103 -0.6219,3.3 -1.2318,6.87594 -1.3553,7.94654 -0.1763,1.52903 1.72,2.92319 8.8416,6.5 11.8996,5.97665 18.4565,10.93522 24.019,18.16409 9.682,12.5825 13.9243,28.16777 11.4598,42.10059 -3.0063,16.99532 -8.6188,26.20293 -26.7318,43.85477 -22.169,21.6047 -39.3106,32.89411 -61.8143,40.71077 -10.0593,3.49409 -30.3859,8.21327 -41.9988,9.75076 -13.3666,1.76967 -44.6252,1.73452 -59.5,-0.0669 z m 68.2297,-12.32564 c 6.4513,-1.15173 17.2513,-3.89106 24,-6.0874 24.2332,-7.88662 38.0991,-16.36868 60.2703,-36.86847 18.2404,-16.86535 22.9343,-23.43896 25.9895,-36.39763 6.0643,-25.72165 -8.314,-46.77608 -39.4895,-57.82545 -3.575,-1.26706 -6.6587,-2.42167 -6.8526,-2.56579 -0.1939,-0.14411 0.7986,-5.12838 2.2056,-11.07613 4.8774,-20.61874 6.7553,-40.08602 8.6156,-89.31411 1.9758,-52.28059 1.5616,-48.29656 6.0297,-57.99625 5.2431,-11.3821 6.8222,-21.16835 5.2055,-32.26034 -2.1943,-15.05529 -9.4111,-26.79744 -28.5828,-46.50624 -6.5608,-6.74456 -11.7469,-12.41771 -11.5248,-12.607 0.2221,-0.1893 3.2579,-1.29308 6.7463,-2.45284 15.66,-5.20641 29.1923,-16.38546 35.6241,-29.42917 8.0823,-16.39073 8.2087,-31.79584 0.392,-47.74816 -3.616,-7.3796 -5.7595,-10.08536 -16.2618,-20.52741 -18.1779,-18.0736 -39.9849,-32.46957 -58.5968,-38.68278 -8.602,-2.87159 -10.6344,-3.1681 -21.5,-3.13661 -10.186,0.0295 -13.2093,0.43099 -20,2.6558 -10.7357,3.5173 -16.2296,7.13945 -27.5,18.13071 l -9.5,9.26473 -29.5,9.76474 c -16.225,5.3706 -36.857,12.50156 -45.849,15.84657 -14.5472,5.41155 -16.4509,5.89982 -17.2732,4.43033 -2.5283,-4.51777 -8.0462,-10.70397 -13.153,-14.74608 -5.251,-4.15623 -5.6868,-4.81424 -5.7051,-8.61351 -0.073,-15.22302 -7.8406,-29.40281 -22.0197,-40.19729 -9.4323,-7.18075 -38.7826,-20.99542 -54.6145,-25.70609 -6.2416,-1.85714 -12.1585,-2.80166 -19.8855,-3.17433 -18.3496,-0.885 -28.6279,2.92527 -40.9789,15.19122 -10.3305,10.25948 -27.1382,30.08738 -30.5307,36.01684 -8.2939,14.49614 -7.6675,31.70452 1.6863,46.32685 1.891,2.95611 3.2998,5.49502 3.1307,5.64202 -0.169,0.147 -6.8324,3.61535 -14.8074,7.70745 -31.06031,15.93753 -38.49566,23.16995 -43.45287,42.26694 -1.94505,7.49301 -1.96007,13.5343 -0.0519,20.8603 1.998,7.67084 4.96715,13.39788 9.27485,17.88978 l 3.55804,3.71018 -4.23782,4.59749 c -5.05796,5.48724 -11.00817,17.60354 -14.72396,29.98215 -2.16217,7.20297 -2.71325,11.09654 -2.75991,19.5 -0.0714,12.85094 2.01859,18.96747 9.23338,27.02273 l 4.83778,5.40135 -4.3464,5.33621 c -9.71437,11.92662 -14.45236,27.24962 -14.60687,47.23971 -0.1049,13.57112 1.58439,20.77647 6.81281,29.05884 1.35457,2.14578 2.46286,4.12778 2.46286,4.40444 0,0.27667 -2.3418,1.68971 -5.20399,3.14009 -6.95478,3.52426 -14.93998,11.89815 -18.69724,19.60737 C 921.70267,597.28257 920.5,603.71427 920.5,621.5 c 0,13.99881 0.29356,16.93491 2.34706,23.47478 3.71019,11.816 6.80129,16.94297 15.1198,25.07807 6.81247,6.66225 7.62045,7.83045 6.85225,9.9071 -1.97757,5.34589 -2.82683,16.2326 -1.78372,22.86565 2.55352,16.23767 11.76212,27.62542 29.22926,36.14619 15.43139,7.52769 23.25186,9.31624 40.73535,9.31624 11.6092,0 16.0949,-0.42373 22.5,-2.12542 9.8106,-2.60645 23.8085,-9.52551 32.5164,-16.07263 12.7448,-9.58221 28.6955,-27.10165 41.5077,-45.58998 2.6681,-3.85 4.9769,-7.17281 5.1308,-7.38401 0.1539,-0.21121 6.932,4.58165 15.0624,10.6508 60.6723,45.29009 109.8178,67.58857 162.2827,73.63158 1.925,0.22172 13.85,0.27433 26.5,0.1169 17.967,-0.2236 25.5668,-0.74446 34.7297,-2.38029 z"
       id="path47" />
    <path
       style="fill:#ff0000"
       d="m 1299,723.94949 c -28.0343,-2.03387 -52.5889,-9.21084 -82.1388,-24.00805 -24.2463,-12.14146 -42.6962,-24.26409 -81.7294,-53.70103 -15.6025,-11.76665 -28.9276,-21.60856 -29.6113,-21.87091 -1.2094,-0.4641 -2.8005,1.79049 -11.0305,15.6305 -22.8762,38.47003 -43.1187,61.1132 -61.203,68.4615 -8.1694,3.31955 -19.6566,4.76251 -28.2317,3.54634 -15.88753,-2.25326 -28.03996,-8.95706 -28.06222,-15.48035 -0.0147,-4.30575 4.35482,-20.72376 5.64747,-21.2198 0.74476,-0.28579 3.60913,0.92743 6.36527,2.69604 4.09889,2.63026 5.63513,3.09861 8.43857,2.57268 9.61281,-1.80337 30.16641,-20.88422 45.55561,-42.29134 8.6596,-12.04587 21.9406,-32.85027 21.9827,-34.43533 0.034,-1.27903 -10.236,-3.07986 -14.9701,-2.62497 -2.6531,0.25492 -8.288,2.10864 -12.522,4.11936 -4.234,2.01073 -8.6212,3.65587 -9.7492,3.65587 -1.1281,0 -3.819,-1.85851 -5.9799,-4.13003 l -3.9288,-4.13003 -5.0131,4.88003 c -2.7572,2.68402 -11.7703,12.30503 -20.02921,21.38003 -8.25885,9.075 -16.11541,17.5125 -17.45901,18.75 -2.82516,2.60207 -6.2432,2.86408 -10.2607,0.78655 -8.12507,-4.20164 -12.42109,-23.91495 -8.67815,-39.8218 1.6956,-7.20598 3.84214,-9.71475 8.31212,-9.71475 5.56866,0 15.10245,-5.84779 30.10006,-18.46265 7.32449,-6.16078 9.94909,-9.26267 16.64839,-19.67558 10.5694,-16.42823 25.5469,-41.96926 25.5469,-43.56489 0,-1.27532 -1.1293,-0.63949 -23.5,13.23082 -27.75543,17.20897 -30.1556,18.04717 -35.04361,12.2381 -2.65425,-3.15439 -2.7073,-3.46903 -2.1497,-12.75 0.63625,-10.59015 2.94308,-20.52932 5.39309,-23.23655 1.18452,-1.30889 3.11571,-1.77925 7.30517,-1.77925 4.76509,0 6.38443,-0.49944 9.9175,-3.05878 9.68065,-7.01265 34.81595,-33.40528 46.74085,-49.07892 3.7673,-4.95167 4.1285,-5.98062 4.717,-13.43687 0.3505,-4.44101 0.3573,-8.35447 0.015,-8.69658 -0.3421,-0.34212 -2.2585,0.0114 -4.2588,0.78568 C 1030.8379,435.43638 989.15062,450 987.49864,450 c -3.83362,0 -6.49941,-2.79601 -6.4897,-6.8067 0.0122,-5.02083 6.24903,-22.77455 9.04694,-25.75278 1.24519,-1.32545 3.87951,-2.70201 5.85405,-3.05903 1.97454,-0.35702 15.81007,-7.00141 30.74567,-14.76531 l 27.1556,-14.11618 0.3444,-6.85028 0.3444,-6.85027 -4,0.61135 c -2.2,0.33625 -8.725,0.88964 -14.5,1.22975 -13.3883,0.78849 -19.5908,-0.69946 -35,-8.39632 -10.02688,-5.00841 -11.53992,-6.09016 -11.81165,-8.44478 -0.73374,-6.35812 1.17912,-7.67527 36.31165,-25.00327 14.3,-7.05302 27.125,-13.39431 28.5,-14.09177 3.0302,-1.53705 3.5016,-5.35891 2.492,-20.20441 l -0.68,-10 -6.4569,-5 c -11.6274,-9.00399 -14.2932,-14.93891 -9.4719,-21.08801 6.0694,-7.74113 23.9709,-27.36575 26.7225,-29.29477 4.3235,-3.03101 11.4666,-3.64155 19.7943,-1.69186 15.1933,3.55706 43.3702,16.82549 51.1847,24.10274 6.1039,5.68417 6.1012,9.6331 -0.014,20.26849 -2.4362,4.23688 -4.7301,8.92133 -5.0975,10.40989 -0.5907,2.39274 -0.3381,2.77133 2.1793,3.26593 12.6961,2.49441 18.9651,5.58355 27.8964,13.7463 6.0143,5.49674 8.4511,9.28773 8.4511,13.14773 0,4.868 -20.4037,20.97458 -40.4039,31.89469 -6.1029,3.33215 -11.1453,6.09905 -11.2054,6.14866 -0.06,0.0496 -0.4062,1.32771 -0.7691,2.84021 l -0.6597,2.75 h 6.3593 c 5.1302,0 7.5757,0.60782 12.6526,3.14478 7.8882,3.9418 15.0262,10.5888 15.0262,13.99267 0,3.4377 -1.2807,4.73081 -11,11.10676 -4.675,3.06683 -13.4973,10.08889 -19.6051,15.60456 -10.9851,9.92011 -11.1121,10.08589 -11.7532,15.33986 -0.3564,2.92125 -0.9439,6.39977 -1.3056,7.73004 -0.8383,3.08354 0.2705,2.69402 11.4033,-4.00585 4.5317,-2.72723 9.5319,-5.21708 11.1115,-5.533 6.6766,-1.33533 22.8877,11.60056 24.6621,19.67956 0.8895,4.04945 -1.0097,6.82228 -9.513,13.88928 -8.7713,7.28976 -42.1637,37.46152 -46.4271,41.94932 -1.6099,1.69464 -2.6719,3.33632 -2.3601,3.64818 0.6766,0.67654 11.1891,-5.6341 22.2872,-13.37898 6.8493,-4.77979 8.6658,-5.5889 12.6284,-5.62501 5.7946,-0.0528 12.8089,4.47227 24.118,15.55891 7.0592,6.92032 7.7536,7.95202 7.7536,11.51967 0,3.10097 -0.945,5.16642 -4.5289,9.89892 -4.8803,6.44447 -32.4711,60.27037 -32.4711,63.3468 0,1.30241 1.4272,2.40138 4.75,3.65758 2.6125,0.98767 12.2302,5.09881 21.3726,9.13586 9.1424,4.03705 17.1824,7.34009 17.8666,7.34009 0.8176,0 1.0195,-0.77139 0.589,-2.25 -6.2354,-21.41849 -7.2856,-37.64669 -5.1653,-79.82039 2.2003,-43.76784 2.2582,-42.27605 -2.063,-53.20114 -4.7264,-11.94989 -5.2891,-17.75231 -2.3315,-24.04426 1.2268,-2.60982 3.1506,-5.3896 4.2752,-6.17728 1.8338,-1.28449 2.5501,-1.15245 6.9461,1.28046 l 4.9014,2.71261 3.3811,-3.9904 c 10.2116,-12.05148 33.2193,-56.60446 34.2154,-66.25586 0.5684,-5.50712 0.5481,-5.56115 -1.8314,-4.88826 -1.3234,0.37423 -10.2812,0.96041 -19.9062,1.30261 -19.2388,0.68401 -24.9844,-0.23049 -33.7602,-5.37342 -5.1564,-3.02189 -6.7561,-5.51275 -5.1516,-8.02164 2.8943,-4.5258 50.5581,-23.54863 128.1356,-51.13945 10.8481,-3.85817 21.4231,-7.81821 23.5,-8.80008 2.0769,-0.98187 7.778,-5.94955 12.669,-11.03929 10.5022,-10.92877 14.9231,-13.42938 23.8271,-13.47731 8.6326,-0.0465 13.7653,1.4966 24.3771,7.32867 16.8957,9.28555 38.5309,27.3997 42.9635,35.97134 5.0235,9.71455 -2.1307,21.12231 -15.5917,24.86147 -10.4034,2.8898 -18.428,3.13665 -34.4234,1.0589 -20.7184,-2.69125 -24.7953,-2.591 -42.2518,1.03894 -16.3919,3.40857 -34.353,7.64988 -34.9581,8.25495 -0.2153,0.2153 0.071,1.60816 0.6365,3.09524 0.5654,1.48708 1.028,3.42592 1.028,4.30853 0,0.88261 -9.6049,11.09081 -21.3443,22.6849 -24.2867,23.98612 -40.5934,41.76758 -38.8397,42.35216 0.6562,0.21873 8.5035,-2.38923 17.4385,-5.79547 8.935,-3.40623 31.5455,-11.50601 50.2455,-17.99951 18.7,-6.49349 35.9691,-12.51975 38.3757,-13.39169 7.4364,-2.6942 13.0324,-2.09465 21.5398,2.30774 19.172,9.92104 46.0642,36.87781 51.1392,51.26195 1.7033,4.82768 0.7335,9.84407 -3.067,15.86446 -6.3517,10.06171 -7.0488,14.74883 -8.4745,56.98052 -1.6892,50.03633 -3.1839,68.5535 -7.184,89 -3.7396,19.11447 -11.3107,36.08561 -20.5509,46.06614 -6.0747,6.56139 -6.2084,6.37175 5.2217,7.40723 23.6938,2.14647 49.264,9.06485 56.5483,15.29998 3.9904,3.41566 4.1509,3.77197 3.67,8.14924 -0.4672,4.25239 -1.1674,5.20536 -9.8606,13.42104 -24.7556,23.39566 -39.5362,31.56163 -67.207,37.13032 -10.9121,2.19604 -16.2247,2.75473 -37.1507,3.90694 -3.3,0.1817 -10.725,-0.0124 -16.5,-0.4314 z m 31.0141,-82.75194 c -1.3672,-0.93365 -6.3172,-4.78877 -11,-8.56694 -10.0931,-8.14336 -13.6374,-9.87919 -25.5403,-12.50841 -15.1375,-3.34372 -28.6179,-4.44952 -45.9738,-3.77128 -21.21,0.82886 -25.6894,1.90949 -18.25,4.40272 1.7875,0.59906 9.325,3.18283 16.75,5.7417 25.0041,8.61714 59.2255,15.28827 83.5,16.2775 l 3,0.12226 z M 1207.3207,589.4064 c 2.5723,-0.87649 4.9101,-1.97088 5.1951,-2.43199 0.285,-0.46111 -0.13,-4.58148 -0.9223,-9.15639 -4.0023,-23.11147 -4.2801,-53.6412 -0.9377,-103.04571 1.3143,-19.42664 1.3745,-24.28499 0.3318,-26.80215 -0.7004,-1.69095 -1.7716,-2.86698 -2.3805,-2.6134 -9.1914,3.82779 -15.6071,7.18425 -15.6071,8.16502 0,0.67319 0.9357,3.33922 2.0793,5.92452 2.0682,4.67552 2.0702,4.79723 0.3797,22.87712 -2.5064,26.80459 -1.616,68.43806 1.8981,88.76155 2.9453,17.03302 3.6071,19.91503 4.5732,19.91503 0.3924,0 2.8181,-0.71712 5.3904,-1.5936 z m 43.3415,-11.94849 c 2.0077,-0.41966 2.1561,-1.02385 2.0758,-8.45493 C 1252.69,564.60134 1252.4038,561 1252.1009,561 1250.4405,561 1238,574.7247 1238,576.55651 c 0,3.50081 0.1687,3.51282 12.6622,0.9014 z m 67.7089,-3.98268 c 0.9606,-2.50332 4.4686,-35.47351 6.1684,-57.97523 2.2152,-29.32348 3.1514,-88.87659 1.4769,-93.95031 l -1.2645,-3.83156 -8.7264,0.61941 c -8.8616,0.62902 -19.0255,2.41138 -19.0255,3.33636 0,0.27949 1.5683,2.34043 3.4852,4.57986 4.4141,5.15689 5.0937,8.88064 3.1796,17.42122 -4.2708,19.05496 -16.6814,124.76083 -14.8467,126.45451 0.375,0.34621 3.4923,0.14838 6.9273,-0.43962 5.9452,-1.01771 6.5942,-0.91976 13.5,2.03755 8.67,3.71277 8.3921,3.65956 9.1257,1.74781 z M 1088.9409,550.75 c 6.7412,-14.24288 7.6476,-16.75 6.0557,-16.75 -2.5839,0 -30.9966,21.95118 -30.9966,23.94746 0,0.46597 2.8125,1.34448 6.25,1.95223 3.4375,0.60775 7.6,1.51527 9.25,2.0167 1.65,0.50144 3.1447,0.95038 3.3215,0.99766 0.1768,0.0473 2.9305,-5.42655 6.1194,-12.16405 z m 152.3777,-9.25758 c 2.5748,-3.57916 4.6814,-6.72916 4.6814,-7 0,-0.80378 -3.2401,-0.55344 -7.25,0.56016 l -3.75,1.04143 v 5.95299 c 0,3.27415 0.3684,5.953 0.8186,5.953 0.4502,0 2.9252,-2.92841 5.5,-6.50758 z m 4.3626,-35.16544 8.1813,-3.68028 0.6785,-7.2412 c 0.3732,-3.98266 0.3959,-7.69855 0.05,-8.25754 -0.4005,-0.64807 -3.1125,-0.17132 -7.4847,1.31575 -11.5883,3.94143 -11.1067,3.37465 -11.1067,13.07147 0,4.65565 0.3375,8.46645 0.75,8.46845 0.4125,0.002 4.4316,-1.65249 8.9312,-3.67665 z m 4.1585,-46.61853 L 1256.5,456.5 v -9.10432 C 1256.5,437.13019 1255.0472,433 1251.4364,433 c -1.2242,0 -5.2055,0.92036 -8.8474,2.04524 l -6.6218,2.04524 2.3685,3.20476 c 3.5228,4.76656 3.8075,6.3384 2.2724,12.54617 -3.025,12.23298 -3.0203,11.47885 -0.068,10.73783 1.4515,-0.36429 5.6362,-2.10615 9.2994,-3.87079 z"
       id="path46" />
    <path
       style="fill:#000000"
       d="m 895.09057,921.91536 c -2.42519,-0.47602 -13.00019,-3.78117 -23.5,-7.34477 -44.52906,-15.11301 -90.02609,-22.64428 -119.03138,-19.70367 -14.5763,1.47777 -32.26501,5.14826 -47.52017,9.86065 -20.10097,6.20929 -21.12056,6.41663 -29.53902,6.00701 -5.79038,-0.28175 -9.24291,-1.02311 -12.5,-2.68413 -7.57486,-3.86297 -17.22245,-11.53965 -26.17996,-20.83165 -11.66022,-12.09563 -12.97264,-16.13697 -10.59496,-32.6253 0.24317,-1.68634 -0.41797,-1.91634 -5.72508,-1.99171 l -6,-0.0852 0.30185,7.53283 c 0.5805,14.48637 -4.59801,31.29168 -12.25363,39.76554 -5.68115,6.28835 -11.46065,8.65528 -21.04822,8.62007 -9.77736,-0.0359 -15.21022,-2.4948 -24.48554,-11.08212 -12.31487,-11.40139 -30.08644,-36.26273 -36.21281,-50.6595 -7.80576,-18.34327 -7.66215,-39.07814 0.40529,-58.51427 5.54298,-13.3542 11.02494,-19.69339 18.01063,-20.82701 8.99565,-1.45979 13.74362,1.68315 21.00352,13.90337 C 567.43766,793.40277 580,804.95122 580,799.43807 c 0,-3.60599 5.36102,-12.7134 8.99468,-15.28036 2.8982,-2.0474 4.00089,-3.69074 4.80186,-7.15624 0.57186,-2.47419 0.86888,-4.66938 0.66006,-4.8782 -0.20882,-0.20883 -2.41708,0.57801 -4.90724,1.74852 -11.0456,5.19205 -23.51627,0.4456 -29.87794,-11.37179 -1.85746,-3.45041 -2.14728,-5.58007 -2.10937,-15.5 0.0371,-9.69811 0.45869,-12.74199 2.69083,-19.4266 1.45577,-4.35963 2.41786,-8.29713 2.13798,-8.75 -0.27989,-0.45287 -1.71984,-0.82762 -3.19988,-0.83278 -7.20579,-0.0251 -21.10555,-12.41723 -26.34854,-23.49062 -3.5762,-7.55305 -3.76569,-16.1981 -0.75375,-34.38674 3.22643,-19.48385 8.92612,-27.52134 21.34465,-30.09942 4.84905,-1.00666 6.03387,-1.78716 10.36097,-6.82524 10.49568,-12.22021 40.05407,-55.45604 52.48871,-76.7766 4.39246,-7.53136 4.66252,-8.39163 3.92399,-12.5 -1.14626,-6.37645 0.19676,-13.44152 3.33801,-17.55991 3.41332,-4.47509 13.35641,-11.83443 18.1081,-13.40262 6.74504,-2.22607 15.36746,-0.71209 25.53146,4.48296 19.37634,9.90371 30.91147,19.84175 34.65293,29.85508 2.36841,6.33862 2.80742,14.564 1.04687,19.61431 -1.46357,4.19839 -0.48923,4.97186 2.88199,2.28784 8.70063,-6.92707 14.73504,-7.57972 30.02863,-3.24773 10.77823,3.053 18.25924,3.67261 18.81164,1.55807 0.14368,-0.55 -3.28776,-2.70262 -7.62543,-4.78359 -5.62916,-2.70056 -10.20957,-5.96881 -16.00173,-11.41766 C 719.63777,530.62929 701.74138,506.28459 687.01991,481.5 680.3201,470.2204 672.57225,459.83304 666.50789,454 l -4.67846,-4.5 -3.66471,4.45888 c -29.60352,36.01872 -72.61086,63.66877 -117.60253,75.60836 -17.9906,4.77423 -28.55175,2.18689 -33.69247,-8.25421 C 504.65844,516.82179 504.5,515.3634 504.5,499.5 c 0,-13.9953 0.32887,-17.94405 1.86068,-22.34126 5.11124,-14.67231 19.2666,-20.60847 32.75662,-13.73673 3.88542,1.97921 6.39484,2.66627 8.13926,2.22844 2.80908,-0.70503 11.95453,-10.71362 18.86956,-20.65045 12.41618,-17.84191 27.46111,-47.14001 43.37496,-84.46726 C 614.7789,348.15321 622,329.05051 622,327.46813 c 0,-1.79611 -17.62463,-2.81241 -51,-2.94084 -32.46896,-0.12494 -33.04122,-0.22227 -38.34109,-6.52081 -5.30798,-6.30818 -4.83835,-16.8146 1.76091,-39.39391 5.3367,-18.25949 7.40484,-22.99574 12.63682,-28.93957 4.75158,-5.39809 11.17805,-8.272 20.44336,-9.14228 3.85,-0.36162 9.475,-1.13325 12.5,-1.71473 9.32003,-1.79155 69.93614,-23.66806 72.76828,-26.26226 1.56517,-1.43367 6.05756,-26.01396 6.86346,-37.55373 l 0.59362,-8.5 -7.105,-9.5 c -3.90775,-5.225 -8.21797,-11.80189 -9.57826,-14.61532 -7.10334,-14.69147 -5.26086,-27.39581 5.8569,-40.38468 2.58924,-3.025 7.4962,-9.531582 10.90435,-14.459072 C 676.18856,64.574206 688.20646,57.658295 712,57.791203 c 8.54375,0.04772 11.99048,0.54941 18.5,2.692755 11.06968,3.644836 22.70242,10.090665 38.13367,21.130293 15.58077,11.146593 25.36784,21.007099 27.72917,27.937239 3.43993,10.09564 1.25293,22.36569 -5.47969,30.74354 -3.3953,4.22499 -9.26453,21.90351 -8.69092,26.17758 0.30189,2.24939 0.62276,2.16806 16.80777,-4.2607 14.44582,-5.73794 17.5173,-6.60992 24.6714,-7.00416 12.60832,-0.69481 22.677,2.7403 38.8286,13.24708 30.22611,19.66238 58.05264,50.34437 63.91767,70.47667 3.74699,12.8619 1.27479,24.38143 -8.92098,41.5685 -10.40498,17.53975 -16.9831,39.1275 -35.43284,116.28193 -8.51996,35.62936 -17.51702,61.42169 -30.02303,86.06853 -7.41869,14.62075 -21.83955,37.09688 -31.29082,48.76936 -3.1625,3.90575 -5.75,7.55038 -5.75,8.09918 0,0.5488 2.64647,1.03534 5.88104,1.0812 12.20839,0.17311 25.91689,5.45902 41.83568,16.1316 10.49215,7.03435 25.01663,21.58914 28.57157,28.6312 5.44301,10.78218 5.5368,23.92415 0.24532,34.374 -5.65963,11.17688 -5.83491,12.67286 -6.27574,53.563 -0.38253,35.48262 1.05575,135.14695 1.96344,136.05464 0.22446,0.22447 3.979,1.08558 8.3434,1.91359 4.36441,0.82801 11.1011,3.06318 14.97043,4.96705 16.86787,8.29972 36.715,30.38844 45.43332,50.56472 1.69426,3.92091 2.50611,8.02013 2.82771,14.27769 0.42555,8.28024 0.27236,9.14081 -2.7031,15.18482 -1.9814,4.02479 -5.04694,8.10885 -8.24457,10.98379 -5.86586,5.27391 -18.65719,11.852 -27.3086,14.04376 -6.41468,1.6251 -18.32292,1.82411 -25.44933,0.4253 z m 23.44933,-11.43327 c 14.73088,-3.75164 27.08097,-13.50239 29.37623,-23.19339 2.73879,-11.56368 -7.05224,-30.50067 -24.8032,-47.97228 -12.35078,-12.15641 -23.59778,-17.36184 -38.14895,-17.6564 -7.57945,-0.15343 -7.92553,-0.26303 -8.39863,-2.66002 -0.27138,-1.375 -1.02286,-30.625 -1.66995,-65 -1.18968,-63.19892 -0.74476,-113.46884 1.08284,-122.34765 0.54881,-2.6662 2.69072,-8.5162 4.7598,-13 3.29583,-7.14221 3.76196,-9.08659 3.76196,-15.69219 0,-6.84404 -0.32298,-8.07578 -3.5,-13.34759 -9.71399,-16.119 -37.81489,-34.59893 -57.5,-37.8136 -5.70357,-0.93142 -6.711,-0.75114 -20.39125,3.64904 -24.65324,7.92959 -45.37861,13.70871 -51.14218,14.26062 -4.32151,0.41382 -7.94527,-0.1533 -16.54557,-2.58938 C 729.36432,565.40366 723.16952,564 721.65477,564 c -3.88493,0 -7.7165,2.21904 -11.97992,6.93814 -5.47145,6.05624 -5.08986,8.76139 2.32515,16.48334 5.25207,5.46949 5.99939,6.73641 5.99509,10.16345 -0.003,2.15329 -1.33055,21.01507 -2.95078,41.91507 -5.89382,76.02655 -9.11377,158.54944 -6.79013,174.02187 l 0.75418,5.02186 -15.85743,13.94881 -15.85742,13.94881 -9.67312,1.21482 c -11.37253,1.42823 -25.02028,4.7206 -28.19733,6.80229 -3.51306,2.30184 -4.89151,7.76127 -3.37767,13.37745 1.03511,3.84017 2.84263,6.20624 10.23213,13.39396 4.93621,4.80143 12.09742,10.86337 15.9138,13.47099 6.27345,4.28646 7.58126,4.77742 13.63764,5.11963 5.76219,0.3256 8.73361,-0.25326 21.25291,-4.14027 16.33468,-5.0716 26.76272,-7.65728 41.41813,-10.26981 13.43492,-2.39496 42.29374,-2.42585 59.39715,-0.0636 25.03808,3.45818 56.29514,11.11672 80.25697,19.66438 19.38606,6.9154 29.39175,8.27082 40.38578,5.47088 z M 589.57265,895.96483 c 10.94069,-5.2963 16.90706,-24.72142 12.99456,-42.30734 -0.93454,-4.20058 -2.79448,-10.33299 -4.13319,-13.62758 -4.306,-10.59714 -3.36647,-11.15645 7.61159,-4.53118 4.09991,2.47431 9.17118,4.97454 11.26948,5.55607 7.83309,2.17091 13.51444,-2.05226 18.90496,-14.05279 5.1252,-11.40987 5.78376,-11.64358 19.36991,-6.87409 11.83833,4.15591 20.07598,4.45625 23.9193,0.87208 5.91147,-5.51285 7.29555,-13.53075 4.83132,-27.98743 -2.29376,-13.45657 -1.02419,-21.15754 5.73002,-34.75733 4.68681,-9.43701 5.00059,-10.5095 3.97976,-13.60266 -0.65476,-1.98392 -2.16949,-3.84146 -3.70188,-4.53966 -4.16638,-1.89833 -7.91401,0.97275 -21.3901,16.38708 -22.17872,25.36863 -32.69811,36.21652 -35.68083,36.79505 -2.75591,0.53454 -24.38188,-1.51095 -29.38552,-2.77942 -4.68915,-1.18875 -9.69923,1.79427 -12.08966,7.19823 -2.26471,5.11977 -2.94052,14.77717 -1.50706,21.53614 0.70317,3.31551 0.57109,3.75 -1.13999,3.75 -2.54647,0 -12.93603,-7.68444 -21.51974,-15.91667 -7.80334,-7.48381 -14.37427,-15.66089 -17.46097,-21.729 C 547.30723,779.71739 545.38307,778 541.93484,778 c -4.12442,0 -7.88,5.58058 -11.88619,17.6622 -8.06169,24.31192 -3.92564,44.52755 14.28856,69.8378 6.62074,9.20011 19.20843,23.28892 24.22873,27.11809 7.1529,5.45579 14.29838,6.59419 21.00671,3.34674 z M 659,837.56089 c 3.575,-0.64824 6.275,-1.59818 6,-2.11096 -0.275,-0.51279 -4.20018,-2.12225 -8.72262,-3.57659 -6.33542,-2.03735 -8.45351,-2.36604 -9.22862,-1.43209 -1.02907,1.23995 -4.04876,8.01799 -4.04876,9.0879 0,0.62671 5.25235,-0.0194 16,-1.96826 z M 633.58478,778.75 c 5.20503,-5.68214 7.05246,-8.14675 5.36564,-7.15816 -3.98107,2.33318 -12.87859,8.98826 -12.91248,9.65816 -0.10378,2.05139 4.89426,0.39571 7.54684,-2.5 z m -22.01284,-2.54472 c 11.5404,-7.9868 17.30625,-12.0858 31.92806,-22.698 27.78089,-20.16276 33.06848,-23.74513 39.0531,-26.45868 7.60686,-3.44912 9.98935,-7.50387 9.15561,-15.58194 C 690.40788,698.86274 678.42595,684 669.56587,684 c -1.38259,0 -5.91224,1.35 -10.06587,3 -4.15363,1.65 -7.76535,3 -8.02603,3 -1.95153,0 1.44767,-4.60897 13.64407,-18.5 7.72645,-8.8 16.71071,-19.04905 19.96502,-22.77568 6.57434,-7.52848 7.07128,-9.5413 3.89351,-15.77026 -2.97376,-5.82904 -14.42525,-17.50876 -19.64328,-20.03476 l -4.53061,-2.19323 -6.42114,2.63696 c -10.08652,4.14223 -10.64256,3.49072 -3.99078,-4.67587 17.27834,-21.21315 36.94919,-49.52219 38.55509,-55.48608 2.34138,-8.69522 -1.87103,-16.98934 -12.77817,-25.15981 -8.07375,-6.048 -23.88517,-14.05956 -29.13812,-14.76413 -4.5462,-0.60977 -11.94154,2.97336 -17.08102,8.27595 -3.42574,3.53447 -3.71383,5.17317 -2.41132,13.71569 0.70167,4.60185 0.49059,5.17861 -6.03012,16.47742 -17.58477,30.47013 -47.24756,72.9061 -58.76537,84.07049 -3.77247,3.65672 -5.30637,4.43245 -10.03281,5.07384 -3.06871,0.41643 -6.35673,1.39892 -7.30671,2.18331 -3.06509,2.5308 -5.13877,9.11485 -7.48175,23.75489 -1.98447,12.39991 -2.12538,14.95601 -1.04684,18.98856 2.56011,9.57199 14.42712,21.18271 21.65027,21.18271 2.33121,0 7.07664,-2.68428 18.55422,-10.49533 15.15465,-10.31346 17.92897,-11.74666 17.91477,-9.25467 -0.004,0.6875 -6.05673,9.35 -13.4507,19.25 -12.46149,16.68507 -13.60292,18.58441 -15.62489,26 -3.95712,14.51273 -2.74699,24.04625 3.82546,30.1374 4.72672,4.38057 7.97046,3.41667 23.6552,-7.02929 C 619.13129,741.13383 631,734.40152 631,736.54797 c 0,0.30139 -6.3,9.98647 -14,21.5224 -7.7,11.53594 -14,21.41435 -14,21.95203 0,1.74011 1.52034,1.06309 8.57194,-3.81712 z M 700.41958,688.75 c 0.31833,-3.4375 1.49323,-19.525 2.61089,-35.75 1.11767,-16.225 2.46804,-33.93518 3.00083,-39.35595 1.4068,-14.31334 1.4808,-13.94246 -4.04114,-20.2527 -2.93764,-3.357 -5.46181,-7.41394 -6.10252,-9.80819 -2.32064,-8.67188 -1.83405,-8.80021 -10.7278,2.82929 -12.80951,16.74975 -12.48575,13.99744 -2.66308,22.639 13.97441,12.29409 18.37333,19.379 18.45935,29.73067 0.064,7.70505 -1.67731,10.83991 -12.87356,23.1758 -5.5454,6.10986 -10.06627,11.43132 -10.04637,11.82546 0.0199,0.39414 2.3824,2.29623 5.25,4.22685 2.89734,1.95066 7.4353,6.5001 10.21382,10.23968 2.75,3.7012 5.30168,6.73409 5.67041,6.73977 0.36872,0.006 0.93085,-2.80218 1.24917,-6.23968 z m 89.6929,-143.8885 c 8.82264,-4.12631 22.00629,-18.51022 35.61872,-38.8615 21.28026,-31.81509 33.64288,-62.09135 45.85694,-112.30443 11.66332,-47.94897 17.50207,-69.73986 24.0334,-89.69557 5.16175,-15.77111 7.36292,-21.01411 11.51085,-27.41795 2.82076,-4.35488 6.02856,-9.95233 7.12844,-12.4388 2.55325,-5.77205 3.33747,-15.48078 1.77616,-21.98906 C 912.10954,225.78273 879.26784,191.3327 852.5,175.50566 841.47743,168.98833 832.92022,166 825.28016,166 c -5.72428,0 -13.99659,3.0188 -53.52249,19.53187 -3.70829,1.54924 -6.96515,2.59399 -7.23747,2.32166 -0.27232,-0.27232 2.43076,-10.81327 6.00685,-23.42433 5.87222,-20.70833 6.95796,-23.59127 11.20961,-29.76468 4.26291,-6.18977 4.74139,-7.46506 5.06502,-13.5 0.32641,-6.08656 0.0893,-7.06574 -2.73453,-11.29096 -7.73447,-11.573031 -43.49356,-35.100878 -59.71149,-39.287436 -12.36833,-3.192805 -30.42665,-0.876367 -39.38525,5.052159 -3.70462,2.451599 -19.72002,22.405429 -30.80352,38.378567 -3.93909,5.67687 -4.92371,11.2084 -3.13335,17.60295 1.32803,4.74325 7.97505,15.65462 14.78406,24.26867 6.31253,7.98594 6.61593,9.38692 4.72064,21.79761 -2.63906,17.28094 -7.50164,42.68619 -8.30284,43.3794 -1.17844,1.01958 -56.63215,21.38986 -69.07177,25.3727 -7.14338,2.28713 -14.7904,3.9564 -20.67482,4.51312 -15.46385,1.46303 -19.7005,4.69546 -24.03606,18.33876 C 545.09702,279.85002 539,303.51968 539,305.98726 c 0,1.04567 1.08614,3.16381 2.41365,4.70698 l 2.41366,2.80576 25.33634,-0.32219 c 13.93499,-0.1772 31.28839,0.17071 38.56311,0.77313 15.05253,1.24651 15.98322,1.03688 26.20066,-5.90165 8.63149,-5.86154 9.53218,-6.09731 8.77197,-2.29626 -0.33975,1.69878 -4.50191,12.91181 -9.24923,24.91783 -23.08583,58.38432 -44.88084,102.94088 -61.06064,124.82914 -6.50428,8.79908 -17.13159,19.19673 -22.05852,21.58181 -4.92402,2.38368 -8.45603,1.75261 -14.29295,-2.55374 -1.80654,-1.33282 -4.55805,-2.70301 -6.11446,-3.04485 -3.89329,-0.85511 -9.41036,1.95029 -11.96533,6.08431 -3.94635,6.38534 -4.80731,31.73876 -1.31257,38.65283 0.75626,1.49619 2.35021,3.24226 3.54212,3.88015 8.17432,4.37476 44.2083,-7.97503 72.52143,-24.85499 23.03241,-13.73166 45.60141,-33.6363 59.83048,-52.76724 l 7.84759,-10.55107 8.8656,8.7864 c 12.15497,12.04638 18.24701,19.72817 26.79431,33.78639 23.82529,39.18679 41.73138,61.27963 55.24332,68.16014 8.18009,4.16544 13.36991,5.2682 23.70946,5.03789 7.8801,-0.17552 10.45702,-0.6592 15.11248,-2.83653 z"
       id="path45" />
    <path
       style="fill:#000000"
       d="M 713.27739,434.03069 C 697.82925,423.57753 675.44379,406.50878 675.70997,405.38581 675.82545,404.89862 680.82181,393.925 686.81298,381 704.1962,343.49851 726.7461,288.2808 735.41041,262 l 3.13198,-9.5 33.60099,-16.85795 c 22.61015,-11.34374 34.21523,-16.65784 35.47881,-16.24615 3.26055,1.06231 11.22644,9.15465 11.99998,12.19047 0.86645,3.40046 -3.64658,22.05387 -12.70012,52.4926 -18.23594,61.3107 -57.59446,147.37511 -71.25885,155.82017 -6.1579,3.80579 -9.30998,2.97947 -22.38581,-5.86845 z M 733.8184,424.75 c 9.99201,-14.57071 32.43414,-61.89381 46.11906,-97.25 9.14419,-23.62482 19.31578,-55.60768 25.50022,-80.18122 2.90256,-11.53316 3.12246,-14.1666 1.24315,-14.88776 -0.72554,-0.27842 -14.15044,5.78985 -29.83312,13.48503 l -28.51396,13.99125 -1.58643,4.79635 c -6.28846,19.01219 -23.42699,62.92892 -32.31133,82.79635 -0.73785,1.65 -4.47054,10.2 -8.29487,19 -3.82433,8.8 -9.0383,20.45741 -11.58658,25.90537 l -4.63326,9.90536 3.73687,3.09464 c 8.61922,7.13789 33.01096,23.54129 35.04381,23.56689 1.4836,0.0187 3.15277,-1.35877 5.11644,-4.22226 z"
       id="path44" />
    <path
       style="fill:#000000"
       d="m 754.34276,645.75 c 0.31093,-1.7875 0.87538,-10.60147 1.25432,-19.58661 0.64648,-15.32866 0.81898,-16.39196 2.79595,-17.23372 4.75954,-2.02653 35.50815,-10.02659 40.65835,-10.57834 5.26441,-0.56398 5.71673,-0.42938 8.75,2.6039 L 811,604.15385 v 22.42307 C 811,638.90962 810.79993,649 810.5554,649 c -0.24453,0 -3.9131,-1.58065 -8.15238,-3.51255 -11.50044,-5.24092 -12.7958,-5.26557 -30.76848,-0.5855 -8.65568,2.25393 -16.2145,4.09805 -16.79736,4.09805 -0.64493,0 -0.83846,-1.27219 -0.49442,-3.25 z m 22.0129,-14.3588 c 4.34287,-1.13712 8.70976,-1.46712 14.89434,-1.12555 l 8.75,0.48325 v -10.37445 c 0,-5.70595 -0.3375,-10.37387 -0.75,-10.37316 -1.12736,0.002 -20.99749,4.86983 -27,6.6146 l -5.25,1.52603 v 7.42904 c 0,8.52274 -0.28606,8.34477 9.35566,5.82024 z"
       id="path43" />
    <path
       style="fill:#000000"
       d="m 805.5,727.41281 c -2.75,-1.91234 -7.37875,-4.64831 -10.2861,-6.07991 -6.96611,-3.43018 -10.89872,-2.93266 -28.42674,3.59625 C 759.2997,727.71812 752.68944,730 752.0977,730 c -0.72303,0 -0.91596,-2.8697 -0.58826,-8.75 0.2682,-4.8125 0.75641,-14.44954 1.08492,-21.41564 0.56079,-11.89156 0.72895,-12.69844 2.75147,-13.20219 1.18479,-0.29509 8.45417,-1.71086 16.15417,-3.14614 14.28051,-2.66189 25.00652,-3.29172 34.2972,-2.01392 L 811,682.18768 v 24.40616 c 0,13.42339 -0.1125,24.38137 -0.25,24.35106 -0.1375,-0.0303 -2.5,-1.61974 -5.25,-3.53209 z m -33.55402,-16.89444 c 11.77374,-4.0045 17.90776,-4.19788 26.65729,-0.84037 1.24855,0.47911 1.43301,-0.81108 1.18745,-8.30538 L 799.5,692.5 l -3.87499,-0.31782 c -4.05778,-0.33281 -29.64779,3.55102 -30.7771,4.67107 -0.83363,0.8268 -1.58555,16.14675 -0.7925,16.14675 0.32686,0 3.87761,-1.11673 7.89057,-2.48163 z"
       id="path42" />
    <path
       style="fill:#000000"
       d="m 750.22857,767.6579 c 0.327,-7.85368 0.84007,-11.08812 1.86143,-11.73468 2.25261,-1.426 13.91229,-1.15183 13.89748,0.32678 -0.0118,1.17672 -12.50593,18.73976 -15.03839,21.13948 -0.89351,0.84668 -1.06469,-1.46541 -0.72052,-9.73158 z"
       id="path41" />
    <path
       style="fill:#000000"
       d="m 751.49107,832.61387 c -0.18793,-0.61263 -0.62974,-6.76224 -0.9818,-13.66581 l -0.64011,-12.55194 10.81542,-7.39721 c 13.08146,-8.94707 33.31459,-23.51407 42.66876,-30.7197 C 807.12268,765.37565 810.38518,763 810.60334,763 810.8215,763 811,777.8096 811,795.91023 v 32.91023 l -8.25,0.53708 c -28.26102,1.83981 -41.35585,2.85876 -45.83162,3.56628 -3.50583,0.5542 -5.19177,0.45791 -5.42731,-0.30995 z M 788.75,818.33847 800,817.69519 V 801.8476 C 800,793.13142 799.78501,786 799.52224,786 c -0.26276,0 -6.00026,3.96067 -12.75,8.80148 -6.74973,4.84081 -15.08474,10.75601 -18.52224,13.14489 -5.90191,4.10151 -6.25,4.56629 -6.25,8.34526 v 4.00184 l 7.75,-0.65586 c 4.2625,-0.36072 12.8125,-0.94534 19,-1.29914 z"
       id="path40" />
    <path
       style="fill:#000000"
       d="m 699.83356,839.70054 c 0.72609,-0.87488 3.57636,-3.03849 6.33392,-4.80801 5.33531,-3.42366 6.78289,-3.05196 6.81721,1.75048 0.0182,2.55025 -0.84985,2.94635 -8.57122,3.91107 -5.32615,0.66546 -5.77165,0.58243 -4.57991,-0.85354 z"
       id="path1" />
  </g>
</svg>
